<svg width="226" height="65" viewBox="0 0 226 65" fill="none" xmlns="http://www.w3.org/2000/svg">
    <g clip-path="url(#clip0_1058_719)">
        <rect width="65.2114" height="64.745" rx="1.89358" fill="#009EE0" />
        <path d="M7.1748 20.4795L16.5631 43.6302H41.2542V40.2454H18.4624L10.282 20.4795H7.1748Z"
            fill="white" />
        <path
            d="M44.6021 30.8974H50.6865C53.0382 30.8974 54.9464 32.7718 54.9464 35.0921V36.1408C54.9464 38.4529 53.0382 40.3355 50.6865 40.3355H41.2544V43.6302H50.6865C54.8878 43.6302 58.2941 40.2777 58.2941 36.1408V35.0921C58.2941 30.9552 54.8878 27.6028 50.6865 27.6028H41.2544V30.8974H44.6021Z"
            fill="white" />
        <path
            d="M23.0757 20.4795H26.0081V37.3973H23.313L16.1431 20.4795H19.228L23.0757 29.5222V20.4795Z"
            fill="white" />
        <path
            d="M53.8098 21.3778H31.3892V36.5069H50.4089V33.7655H39.8915C37.4003 33.6861 35.4108 31.779 35.4108 29.4429V28.4338C35.4108 26.0977 37.4003 24.1907 39.8915 24.1112H50.4089H53.8098V21.3699V21.3778Z"
            fill="white" />
        <path
            d="M223.559 28.6152H217.947V30.7629H223.559V28.6152ZM218.482 20.8736H215.799V30.7629H218.482V20.8736ZM211.397 24.6546H205.469V26.7614H211.397V24.6546ZM213.115 20.8736H210.432V30.7629H213.115V20.8736ZM206.618 20.8736H203.935V30.7629H206.618V20.8736ZM199.743 27.0554H193.868V29.0398H199.743V27.0554ZM194.123 30.7629L197.236 22.4497H196.28L199.349 30.7629H202.163L198.077 20.8736H195.482L191.352 30.7629H194.123ZM191.369 20.8736H182.189V23.0213H191.369V20.8736ZM188.108 20.9471H185.424V30.771H188.108V20.9471ZM179.944 30.1096C180.689 29.5624 181.066 28.7948 181.066 27.823C181.066 27.3249 180.979 26.8921 180.795 26.5409C180.61 26.1898 180.374 25.8958 180.084 25.659C179.786 25.4303 179.471 25.2344 179.12 25.0874C178.769 24.9404 178.418 24.8097 178.068 24.6954C177.717 24.5811 177.392 24.4749 177.094 24.3606C176.796 24.2462 176.559 24.1238 176.384 23.9931C176.2 23.8624 176.112 23.6828 176.112 23.4541C176.112 23.2255 176.217 23.0622 176.428 22.9397C176.638 22.8172 176.928 22.76 177.296 22.76C177.699 22.76 178.059 22.8335 178.383 22.9805C178.708 23.1275 179.032 23.3561 179.348 23.6664L181.058 22.074C180.646 21.6494 180.119 21.3146 179.462 21.0696C178.804 20.8246 178.094 20.7103 177.331 20.7103C176.568 20.7103 175.884 20.8328 175.305 21.0696C174.727 21.3064 174.271 21.6494 173.946 22.1067C173.622 22.564 173.455 23.103 173.455 23.7236C173.455 24.2299 173.543 24.6382 173.727 24.973C173.911 25.2997 174.148 25.5855 174.437 25.806C174.736 26.0346 175.051 26.2225 175.402 26.3695C175.753 26.5164 176.103 26.6471 176.463 26.7614C176.822 26.8758 177.147 26.9819 177.436 27.0962C177.726 27.2106 177.962 27.3412 178.146 27.4882C178.331 27.6352 178.427 27.8312 178.427 28.0762C178.427 28.3212 178.304 28.5253 178.059 28.6723C177.813 28.8193 177.471 28.8846 177.015 28.8846C176.489 28.8846 176.016 28.7866 175.595 28.5907C175.174 28.3947 174.788 28.1252 174.429 27.7659L172.719 29.3583C173.262 29.8972 173.85 30.2974 174.499 30.5505C175.148 30.8037 175.919 30.9344 176.805 30.9344C178.147 30.9344 179.19 30.6567 179.935 30.1096M170.886 25.61H164.433V26.9248H170.886V25.61ZM161.188 30.1096C161.934 29.5624 162.311 28.7948 162.311 27.823C162.311 27.3249 162.223 26.8921 162.039 26.5409C161.863 26.1898 161.618 25.8958 161.328 25.659C161.03 25.4303 160.715 25.2344 160.364 25.0874C160.013 24.9404 159.662 24.8097 159.312 24.6954C158.961 24.5811 158.637 24.4749 158.338 24.3606C158.04 24.2462 157.804 24.1238 157.628 23.9931C157.453 23.8624 157.356 23.6828 157.356 23.4541C157.356 23.2255 157.462 23.0622 157.672 22.9397C157.882 22.8172 158.172 22.76 158.54 22.76C158.943 22.76 159.303 22.8335 159.627 22.9805C159.952 23.1275 160.276 23.3561 160.592 23.6664L162.302 22.074C161.89 21.6494 161.364 21.3146 160.706 21.0696C160.048 20.8246 159.338 20.7103 158.575 20.7103C157.812 20.7103 157.128 20.8328 156.55 21.0696C155.971 21.3064 155.515 21.6494 155.191 22.1067C154.866 22.564 154.699 23.103 154.699 23.7236C154.699 24.2299 154.787 24.6382 154.971 24.973C155.147 25.2997 155.392 25.5855 155.682 25.806C155.98 26.0346 156.295 26.2225 156.646 26.3695C156.997 26.5164 157.348 26.6471 157.707 26.7614C158.067 26.8758 158.391 26.9819 158.68 27.0962C158.97 27.2106 159.206 27.3412 159.391 27.4882C159.575 27.6352 159.671 27.8312 159.671 28.0762C159.671 28.3212 159.548 28.5253 159.303 28.6723C159.057 28.8193 158.715 28.8846 158.259 28.8846C157.733 28.8846 157.26 28.7866 156.839 28.5907C156.418 28.3947 156.032 28.1252 155.673 27.7659L153.963 29.3583C154.507 29.8972 155.094 30.2974 155.743 30.5505C156.392 30.8037 157.163 30.9344 158.049 30.9344C159.391 30.9344 160.434 30.6567 161.179 30.1096M150.219 30.3954C150.894 30.0361 151.429 29.5543 151.797 28.9336C152.174 28.3212 152.358 27.6107 152.358 26.8104V20.8736H149.666V27.0146C149.666 27.3657 149.587 27.6679 149.43 27.921C149.272 28.1742 149.053 28.362 148.789 28.5008C148.518 28.6397 148.202 28.705 147.842 28.705C147.483 28.705 147.176 28.6397 146.895 28.5008C146.615 28.3702 146.387 28.1742 146.22 27.9129C146.054 27.6597 145.975 27.3494 145.975 26.9983V20.8736H143.292V26.8023C143.292 27.6025 143.485 28.313 143.87 28.9336C144.256 29.5543 144.791 30.0442 145.475 30.3954C146.159 30.7547 146.948 30.9344 147.851 30.9344C148.754 30.9344 149.552 30.7547 150.236 30.3954M140.801 30.7629V20.8736H138.118V28.6887L138.811 30.771H140.801V30.7629ZM139.574 28.1987L133.357 20.8736L132.612 23.4378L138.811 30.7629L139.574 28.1987ZM134.164 30.7629V22.9152L133.357 20.8818H131.48V30.771H134.164V30.7629ZM127.289 27.0554H121.414V29.0398H127.289V27.0554ZM121.668 30.7629L124.781 22.4497H123.826L126.894 30.7629H129.709L125.623 20.8736H123.036L118.906 30.7629H121.677H121.668ZM116.258 30.5587C116.916 30.3137 117.495 29.9789 118.021 29.5461L116.223 27.872C115.943 28.1334 115.618 28.3375 115.241 28.4763C114.864 28.6233 114.426 28.6887 113.935 28.6887C113.505 28.6887 113.11 28.6152 112.751 28.4763C112.391 28.3375 112.084 28.1415 111.83 27.8884C111.576 27.6352 111.374 27.3331 111.234 26.9819C111.085 26.6308 111.015 26.2306 111.015 25.7815C111.015 25.3324 111.085 24.9649 111.234 24.6137C111.374 24.2626 111.576 23.9604 111.83 23.7073C112.084 23.4541 112.391 23.2663 112.76 23.1275C113.128 22.9887 113.514 22.9233 113.935 22.9233C114.426 22.9233 114.855 22.9968 115.224 23.1438C115.592 23.2908 115.908 23.495 116.171 23.7563L117.968 22.0659C117.46 21.6412 116.872 21.2983 116.197 21.0533C115.53 20.8083 114.776 20.6858 113.935 20.6858C113.093 20.6858 112.383 20.8164 111.699 21.0778C111.015 21.3391 110.418 21.6984 109.901 22.1557C109.384 22.613 108.989 23.152 108.709 23.7644C108.428 24.3851 108.288 25.0547 108.288 25.7815C108.288 26.5083 108.428 27.1942 108.717 27.8149C108.998 28.4355 109.401 28.9826 109.919 29.4399C110.436 29.8972 111.032 30.2647 111.725 30.5179C112.418 30.7792 113.163 30.9099 113.97 30.9099C114.847 30.9099 115.618 30.7874 116.267 30.5424M107.244 28.5988H102.141V30.7465H107.244V28.5988ZM102.676 20.8573H99.9927V30.7465H102.676V20.8736V20.8573ZM95.3541 30.3791C96.0293 30.0197 96.5642 29.5379 96.9325 28.9173C97.3095 28.3048 97.4936 27.5944 97.4936 26.7941V20.8736H94.8017V27.0146C94.8017 27.3657 94.7228 27.6679 94.565 27.921C94.4071 28.1742 94.1879 28.362 93.9249 28.5008C93.653 28.6397 93.3374 28.705 92.9779 28.705C92.6183 28.705 92.3114 28.6397 92.0309 28.5008C91.7503 28.3702 91.5223 28.1742 91.3557 27.9129C91.1891 27.6597 91.1102 27.3494 91.1102 26.9983V20.8736H88.427V26.8023C88.427 27.6025 88.6199 28.313 89.0057 28.9336C89.3915 29.5543 89.9264 30.0442 90.6104 30.3954C91.2943 30.7547 92.0835 30.9344 92.9866 30.9344C93.8898 30.9344 94.6877 30.7547 95.3717 30.3954M82.6748 30.7629L86.6996 20.8736H83.9024L80.8598 28.8683H82.0874L79.0885 20.8736H76.23L80.2284 30.7629H82.6661H82.6748Z"
            fill="#169DD9" />
        <path
            d="M220.321 38.8457H215.637V40.5733H220.321V38.8457ZM221.682 35.7529H219.562V43.8516H221.682V35.7529ZM216.553 35.7529H214.433V43.8516H216.553V35.7529ZM208.047 35.7529H205.963V43.8516H208.047V35.7529ZM209.705 43.8516C210.289 43.8516 210.795 43.7504 211.223 43.5482C211.65 43.3459 211.982 43.0678 212.226 42.7054C212.461 42.3431 212.584 41.9385 212.584 41.4919C212.584 40.8767 212.365 40.3626 211.929 39.9581C211.493 39.5536 210.882 39.3008 210.08 39.2081V39.9076C210.804 39.8149 211.362 39.5958 211.737 39.2334C212.121 38.8794 212.313 38.4328 212.313 37.8934C212.313 37.4889 212.208 37.1265 212.008 36.8063C211.798 36.4861 211.511 36.2333 211.135 36.0394C210.76 35.8456 210.307 35.7529 209.775 35.7529H207.646V37.2698H209.269C209.548 37.2698 209.775 37.3372 209.949 37.4721C210.124 37.6069 210.22 37.8176 210.22 38.1041C210.22 38.3906 210.132 38.5845 209.949 38.7193C209.775 38.8541 209.539 38.9216 209.26 38.9216H207.655V40.3879H209.391C209.618 40.3879 209.81 40.4301 209.967 40.5143C210.124 40.5986 210.246 40.7082 210.342 40.8514C210.429 40.9947 210.481 41.1632 210.481 41.3571C210.481 41.6352 210.385 41.8711 210.185 42.0565C209.984 42.2419 209.731 42.3346 209.417 42.3346H207.655V43.8516H209.714H209.705ZM197.047 43.8516V39.1407L196.725 39.2165L198.618 42.0144H200.013L201.915 39.2165L201.583 39.1407V43.8516H203.686V35.7529H202.159L198.966 40.4469H199.664L196.463 35.7529H194.936V43.8516H197.039H197.047ZM191.116 43.4555C191.761 43.1099 192.267 42.6043 192.633 41.9301C193 41.2559 193.174 40.4385 193.174 39.4778V39.166H188.629V40.843L192.45 40.9357L191.02 40.034C191.02 40.4722 190.941 40.8599 190.775 41.1801C190.61 41.5003 190.365 41.7447 190.051 41.9048C189.729 42.065 189.345 42.1492 188.882 42.1492C188.42 42.1492 188.019 42.0481 187.67 41.8543C187.321 41.6604 187.042 41.3823 186.85 41.0284C186.649 40.6745 186.553 40.2531 186.553 39.7812C186.553 39.3092 186.658 38.9047 186.867 38.5508C187.077 38.1968 187.365 37.9187 187.722 37.7249C188.089 37.5311 188.49 37.4299 188.943 37.4299C189.397 37.4299 189.79 37.5142 190.13 37.6743C190.47 37.8344 190.784 38.0873 191.063 38.4075L192.485 37.0338C192.11 36.5872 191.613 36.2333 191.011 35.9804C190.4 35.7276 189.729 35.6012 188.978 35.6012C188.35 35.6012 187.757 35.7023 187.199 35.913C186.64 36.1237 186.152 36.4187 185.742 36.7895C185.332 37.1603 185.001 37.6069 184.765 38.121C184.529 38.635 184.416 39.1828 184.416 39.7812C184.416 40.3795 184.529 40.9273 184.756 41.4413C184.983 41.9554 185.297 42.3936 185.698 42.7729C186.1 43.1521 186.571 43.447 187.12 43.6493C187.661 43.86 188.254 43.9611 188.882 43.9611C189.746 43.9611 190.496 43.7841 191.142 43.4386M178.048 43.5313C178.58 43.2364 178.999 42.8403 179.295 42.3346C179.592 41.829 179.74 41.2559 179.74 40.5986V35.7276H177.612V40.7587C177.612 41.0453 177.551 41.2981 177.42 41.5003C177.298 41.7026 177.123 41.8627 176.914 41.9723C176.705 42.0818 176.452 42.1408 176.173 42.1408C175.893 42.1408 175.649 42.0818 175.422 41.9723C175.196 41.8627 175.021 41.7026 174.89 41.4919C174.759 41.2812 174.698 41.0368 174.698 40.7419V35.7276H172.579V40.5817C172.579 41.2391 172.727 41.8206 173.032 42.3262C173.338 42.8318 173.756 43.2364 174.297 43.5229C174.838 43.8178 175.466 43.9611 176.173 43.9611C176.879 43.9611 177.516 43.8178 178.057 43.5229M169.351 40.784H164.719V42.4105H169.351V40.784ZM164.92 43.8263L167.379 37.017H166.621L169.046 43.8263H171.27L168.042 35.7276H165.992L162.73 43.8263H164.92ZM156.964 35.7276H154.879V43.8263H156.964V35.7276ZM158.621 43.8263C159.206 43.8263 159.712 43.7251 160.139 43.5229C160.567 43.3206 160.898 43.0425 161.142 42.6802C161.378 42.3178 161.5 41.9133 161.5 41.4666C161.5 40.8514 161.282 40.3374 160.846 39.9328C160.41 39.5283 159.799 39.2755 158.996 39.1828V39.8823C159.72 39.7896 160.279 39.5705 160.654 39.2081C161.038 38.8541 161.23 38.4075 161.23 37.8682C161.23 37.4636 161.125 37.1013 160.924 36.781C160.715 36.4608 160.427 36.208 160.052 36.0141C159.677 35.8203 159.223 35.7276 158.691 35.7276H156.563V37.2445H158.185C158.464 37.2445 158.691 37.3119 158.866 37.4468C159.04 37.5816 159.136 37.7923 159.136 38.0788C159.136 38.3654 159.049 38.5592 158.866 38.694C158.691 38.8289 158.456 38.8963 158.176 38.8963H156.571V40.3626H158.307C158.534 40.3626 158.726 40.4048 158.883 40.4891C159.04 40.5733 159.162 40.6829 159.258 40.8261C159.345 40.9694 159.398 41.138 159.398 41.3318C159.398 41.6099 159.302 41.8458 159.101 42.0313C158.9 42.2167 158.647 42.3094 158.333 42.3094H156.571V43.8263H158.63H158.621ZM152.611 43.8263V35.7276H150.491V42.124L151.032 43.8263H152.602H152.611ZM151.643 41.7279L146.731 35.7276L146.138 37.826L151.032 43.8263L151.634 41.7279H151.643ZM147.377 43.8263V37.3962L146.74 35.7276H145.266V43.8263H147.386H147.377ZM143.216 35.7276H138.732V37.4552H143.216V35.7276ZM142.85 38.8541H138.732V40.5312H142.85V38.8541ZM143.277 42.0987H138.732V43.8263H143.277V42.0987ZM139.177 35.7276H137.057V43.8263H139.177V35.7276ZM134.781 43.8263V35.7276H132.661V42.124L133.202 43.8263H134.772H134.781ZM133.812 41.7279L128.901 35.7276L128.308 37.826L133.202 43.8263L133.804 41.7279H133.812ZM129.547 43.8263V37.3962L128.91 35.7276H127.436V43.8263H129.555H129.547ZM125.15 35.7276H123.03V43.8263H125.15V35.7276ZM119.393 38.8204H114.708V40.548H119.393V38.8204ZM120.754 35.7276H118.634V43.8263H120.754V35.7276ZM115.624 35.7276H113.505V43.8263H115.624V35.7276ZM110.425 43.6662C110.94 43.4639 111.402 43.1858 111.812 42.8403L110.39 41.4666C110.172 41.6773 109.911 41.8458 109.614 41.9638C109.317 42.0818 108.977 42.1408 108.576 42.1408C108.236 42.1408 107.922 42.0818 107.642 41.9723C107.355 41.8543 107.119 41.6942 106.918 41.4919C106.718 41.2896 106.561 41.0368 106.447 40.7503C106.334 40.4638 106.273 40.1351 106.273 39.7643C106.273 39.3935 106.334 39.0901 106.447 38.8036C106.561 38.5171 106.718 38.2642 106.918 38.062C107.119 37.8597 107.363 37.6996 107.651 37.5901C107.939 37.4805 108.244 37.4215 108.576 37.4215C108.96 37.4215 109.3 37.4805 109.597 37.6069C109.884 37.7249 110.137 37.8934 110.338 38.1125L111.76 36.7305C111.359 36.3765 110.896 36.1068 110.364 35.9046C109.832 35.7023 109.239 35.6012 108.576 35.6012C107.913 35.6012 107.346 35.7108 106.805 35.9214C106.264 36.1321 105.793 36.4271 105.383 36.7979C104.973 37.1687 104.668 37.6069 104.441 38.121C104.223 38.6266 104.11 39.1744 104.11 39.7727C104.11 40.3711 104.223 40.9273 104.45 41.4413C104.677 41.9554 104.991 42.3936 105.392 42.7729C105.802 43.1521 106.273 43.447 106.814 43.6577C107.355 43.8684 107.948 43.978 108.585 43.978C109.282 43.978 109.884 43.8768 110.399 43.6746M101.693 43.3038C102.286 42.8571 102.583 42.2335 102.583 41.4329C102.583 41.02 102.513 40.6745 102.374 40.3795C102.234 40.093 102.042 39.8486 101.815 39.6632C101.58 39.4693 101.327 39.3177 101.056 39.1912C100.777 39.0733 100.507 38.9637 100.219 38.871C99.9398 38.7783 99.6869 38.6856 99.4513 38.5929C99.2158 38.5002 99.0326 38.3991 98.8931 38.2895C98.7535 38.18 98.6837 38.0367 98.6837 37.8513C98.6837 37.6659 98.7622 37.5311 98.9279 37.4299C99.0937 37.3288 99.3205 37.2782 99.6171 37.2782C99.9311 37.2782 100.219 37.3372 100.472 37.4636C100.725 37.5816 100.987 37.7755 101.231 38.0198L102.583 36.7136C102.26 36.3597 101.842 36.09 101.327 35.8877C100.812 35.6855 100.245 35.5928 99.6433 35.5928C99.0414 35.5928 98.5005 35.6939 98.0469 35.8877C97.5933 36.0816 97.2356 36.3681 96.9739 36.7389C96.721 37.1097 96.5901 37.5563 96.5901 38.062C96.5901 38.4749 96.6599 38.812 96.7995 39.0817C96.939 39.3514 97.131 39.5789 97.3578 39.7643C97.5933 39.9497 97.8463 40.1014 98.1167 40.2278C98.3958 40.3458 98.675 40.4553 98.9541 40.548C99.242 40.6407 99.495 40.7334 99.7218 40.8261C99.9486 40.9188 100.14 41.0284 100.28 41.1464C100.428 41.2644 100.498 41.4245 100.498 41.6267C100.498 41.829 100.402 41.9975 100.21 42.1155C100.018 42.2335 99.7392 42.2925 99.3903 42.2925C98.9716 42.2925 98.5965 42.2167 98.265 42.0565C97.9335 41.8964 97.6282 41.6689 97.3403 41.3823L95.9882 42.6886C96.4156 43.1268 96.8867 43.4555 97.3927 43.6662C97.9073 43.8768 98.5092 43.978 99.2158 43.978C100.271 43.978 101.1 43.7504 101.685 43.3038M93.2578 40.8009H88.6258V42.4273H93.2578V40.8009ZM88.8264 43.8431L91.2864 37.0338H90.5274L92.9525 43.8431H95.1769L91.9493 35.7445H89.8994L86.6368 43.8431H88.8264ZM78.341 43.8431V39.1323L78.0183 39.2081L79.9112 42.006H81.3069L83.2086 39.2081L82.8771 39.1323V43.8431H84.9794V35.7445H83.4529L80.2601 40.4385H80.958L77.7566 35.7445H76.23V43.8431H78.3323H78.341Z"
            fill="#169DD9" />
        <path
            d="M166.505 19.4746L165.511 18.2727L165.192 18.3566L166.102 19.4746H166.505ZM164.995 17.0708H164.666V19.4839H164.995V17.0708ZM165.539 18.3938C165.773 18.3938 165.961 18.3379 166.092 18.2168C166.224 18.0957 166.299 17.9373 166.299 17.7323C166.299 17.546 166.233 17.3876 166.092 17.2572C165.961 17.1361 165.773 17.0708 165.539 17.0708H164.835V17.369H165.539C165.68 17.369 165.783 17.4062 165.858 17.4808C165.924 17.5553 165.961 17.6392 165.961 17.7416C165.961 17.8441 165.924 17.9373 165.858 18.0025C165.783 18.0677 165.68 18.105 165.548 18.105H164.844V18.4031H165.548L165.539 18.3938ZM164.394 20.0429C164.094 19.8659 163.859 19.6237 163.69 19.3162C163.521 19.0087 163.437 18.6733 163.437 18.3007C163.437 17.928 163.521 17.5926 163.69 17.2851C163.859 16.987 164.084 16.7447 164.385 16.5677C164.685 16.3907 165.023 16.3069 165.417 16.3069C165.811 16.3069 166.158 16.3907 166.449 16.5677C166.749 16.7447 166.984 16.987 167.153 17.2851C167.322 17.5833 167.406 17.928 167.406 18.3007C167.406 18.6733 167.322 19.0181 167.153 19.3162C166.984 19.6237 166.749 19.8659 166.449 20.0429C166.149 20.2199 165.802 20.3131 165.398 20.3131C165.023 20.3131 164.685 20.2199 164.385 20.0429M166.599 20.2852C166.937 20.0802 167.209 19.81 167.397 19.4653C167.594 19.1205 167.688 18.7292 167.688 18.3007C167.688 17.8721 167.594 17.4901 167.397 17.1454C167.209 16.8006 166.937 16.5305 166.59 16.3255C166.243 16.1205 165.877 16.0273 165.426 16.0273C164.976 16.0273 164.582 16.1298 164.244 16.3255C163.906 16.5211 163.643 16.8006 163.446 17.1361C163.249 17.4715 163.155 17.8535 163.155 18.282C163.155 18.7106 163.249 19.1019 163.446 19.4466C163.634 19.7914 163.906 20.0709 164.253 20.2758C164.6 20.4808 164.995 20.5833 165.436 20.5833C165.877 20.5833 166.28 20.4808 166.618 20.2852"
            fill="#169DD9" />
        <path
            d="M222.659 23.8442C222.237 24.0957 221.956 24.31 221.806 24.4777C221.552 24.7572 221.43 25.102 221.43 25.5119C221.43 25.8939 221.562 26.2386 221.815 26.5461C222.068 26.8535 222.481 27.0026 223.054 27.0026C223.438 27.0026 223.776 26.9094 224.067 26.7324C224.236 26.6299 224.424 26.4715 224.621 26.2479L225.137 26.8722H226L225.034 25.6982C225.034 25.7635 225.099 25.633 225.221 25.3162C225.343 24.9995 225.428 24.6641 225.475 24.3193H224.837C224.808 24.4964 224.78 24.6268 224.761 24.7293C224.733 24.8225 224.686 24.9715 224.621 25.1672L223.626 23.9839C223.926 23.7883 224.142 23.6113 224.274 23.4529C224.489 23.192 224.602 22.8845 224.602 22.5398C224.602 22.2417 224.499 21.9808 224.283 21.7665C224.067 21.5522 223.776 21.4404 223.391 21.4404C222.997 21.4404 222.678 21.5522 222.434 21.7852C222.2 22.0181 222.078 22.3069 222.078 22.6609C222.078 22.8286 222.115 23.0057 222.2 23.1827C222.275 23.3597 222.434 23.5833 222.659 23.8442ZM223.101 26.4063C222.857 26.4063 222.631 26.3318 222.425 26.1734C222.209 26.015 222.106 25.7914 222.106 25.5119C222.106 25.2417 222.19 25.0181 222.35 24.8318C222.453 24.7107 222.688 24.5336 223.035 24.3007L224.264 25.8007C224.161 25.9591 224.001 26.0989 223.804 26.22C223.607 26.3411 223.373 26.4063 223.091 26.4063M223.269 23.5367C223.072 23.3131 222.932 23.1361 222.857 23.0057C222.772 22.8659 222.735 22.7262 222.735 22.5771C222.735 22.4653 222.763 22.3628 222.819 22.2696C222.922 22.0833 223.119 21.9994 223.391 21.9994C223.57 21.9994 223.71 22.0553 223.823 22.1765C223.926 22.2883 223.983 22.428 223.983 22.5864C223.983 22.7914 223.908 22.9777 223.767 23.1454C223.682 23.2479 223.513 23.3877 223.288 23.546"
            fill="#169DD9" />
    </g>
    <defs>
        <clipPath id="clip0_1058_719">
            <rect width="226" height="65" fill="white" />
        </clipPath>
    </defs>
</svg>
    