<svg width="244" height="32" viewBox="0 0 244 32" fill="none" xmlns="http://www.w3.org/2000/svg">
    <g clip-path="url(#clip0_208_762)">
        <path d="M0 4.38989L11.27 31.6799H40.91V27.6899H13.55L3.73 4.38989H0Z" fill="white" />
        <path
            d="M44.37 16.2698H51.64C54.45 16.2698 56.73 18.5398 56.73 21.3498V22.6198C56.73 25.4198 54.45 27.6998 51.64 27.6998H40.37V31.6898H51.64C56.66 31.6898 60.73 27.6298 60.73 22.6198V21.3498C60.73 16.3398 56.66 12.2798 51.64 12.2798H40.37V16.2698H44.37Z"
            fill="white" />
        <path d="M19.18 4.2998H22.64V24.1498H19.46L11 4.2998H14.64L19.18 14.9098V4.2998Z"
            fill="white" />
        <path
            d="M55.64 4.6599H29.27V23.6999H51.64V20.2499H39.27C36.34 20.1499 34 17.7499 34 14.8099V13.5399C34 10.5999 36.34 8.1999 39.27 8.0999H51.64H55.64V4.6499V4.6599Z"
            fill="white" />
        <path
            d="M243.82 14.2998H237.42V16.9298H243.82V14.2998ZM238.03 4.81984H234.97V16.9298H238.03V4.81984ZM229.95 9.44984H223.19V12.0298H229.95V9.44984ZM231.91 4.81984H228.85V16.9298H231.91V4.81984ZM224.5 4.81984H221.44V16.9298H224.5V4.81984ZM216.66 12.3898H209.96V14.8198H216.66V12.3898ZM210.25 16.9298L213.8 6.74984H212.71L216.21 16.9298H219.42L214.76 4.81984H211.8L207.09 16.9298H210.25ZM207.11 4.81984H196.64V7.44984H207.11V4.81984ZM203.39 4.90984H200.33V16.9398H203.39V4.90984ZM194.08 16.1298C194.93 15.4598 195.36 14.5198 195.36 13.3298C195.36 12.7198 195.26 12.1898 195.05 11.7598C194.84 11.3298 194.57 10.9698 194.24 10.6798C193.9 10.3998 193.54 10.1598 193.14 9.97984C192.74 9.79984 192.34 9.63984 191.94 9.49984C191.54 9.35984 191.17 9.22984 190.83 9.08984C190.49 8.94984 190.22 8.79984 190.02 8.63984C189.81 8.47984 189.71 8.25984 189.71 7.97984C189.71 7.69984 189.83 7.49984 190.07 7.34984C190.31 7.19984 190.64 7.12984 191.06 7.12984C191.52 7.12984 191.93 7.21984 192.3 7.39984C192.67 7.57984 193.04 7.85984 193.4 8.23984L195.35 6.28984C194.88 5.76984 194.28 5.35984 193.53 5.05984C192.78 4.75984 191.97 4.61984 191.1 4.61984C190.23 4.61984 189.45 4.76984 188.79 5.05984C188.13 5.34984 187.61 5.76984 187.24 6.32984C186.87 6.88984 186.68 7.54984 186.68 8.30984C186.68 8.92984 186.78 9.42984 186.99 9.83984C187.2 10.2398 187.47 10.5898 187.8 10.8598C188.14 11.1398 188.5 11.3698 188.9 11.5498C189.3 11.7298 189.7 11.8898 190.11 12.0298C190.52 12.1698 190.89 12.2998 191.22 12.4398C191.55 12.5798 191.82 12.7398 192.03 12.9198C192.24 13.0998 192.35 13.3398 192.35 13.6398C192.35 13.9398 192.21 14.1898 191.93 14.3698C191.65 14.5498 191.26 14.6298 190.74 14.6298C190.14 14.6298 189.6 14.5098 189.12 14.2698C188.64 14.0298 188.2 13.6998 187.79 13.2598L185.84 15.2098C186.46 15.8698 187.13 16.3598 187.87 16.6698C188.61 16.9798 189.49 17.1398 190.5 17.1398C192.03 17.1398 193.22 16.7998 194.07 16.1298M183.75 10.6198H176.39V12.2298H183.75V10.6198ZM172.69 16.1298C173.54 15.4598 173.97 14.5198 173.97 13.3298C173.97 12.7198 173.87 12.1898 173.66 11.7598C173.46 11.3298 173.18 10.9698 172.85 10.6798C172.51 10.3998 172.15 10.1598 171.75 9.97984C171.35 9.79984 170.95 9.63984 170.55 9.49984C170.15 9.35984 169.78 9.22984 169.44 9.08984C169.1 8.94984 168.83 8.79984 168.63 8.63984C168.43 8.47984 168.32 8.25984 168.32 7.97984C168.32 7.69984 168.44 7.49984 168.68 7.34984C168.92 7.19984 169.25 7.12984 169.67 7.12984C170.13 7.12984 170.54 7.21984 170.91 7.39984C171.28 7.57984 171.65 7.85984 172.01 8.23984L173.96 6.28984C173.49 5.76984 172.89 5.35984 172.14 5.05984C171.39 4.75984 170.58 4.61984 169.71 4.61984C168.84 4.61984 168.06 4.76984 167.4 5.05984C166.74 5.34984 166.22 5.76984 165.85 6.32984C165.48 6.88984 165.29 7.54984 165.29 8.30984C165.29 8.92984 165.39 9.42984 165.6 9.83984C165.8 10.2398 166.08 10.5898 166.41 10.8598C166.75 11.1398 167.11 11.3698 167.51 11.5498C167.91 11.7298 168.31 11.8898 168.72 12.0298C169.13 12.1698 169.5 12.2998 169.83 12.4398C170.16 12.5798 170.43 12.7398 170.64 12.9198C170.85 13.0998 170.96 13.3398 170.96 13.6398C170.96 13.9398 170.82 14.1898 170.54 14.3698C170.26 14.5498 169.87 14.6298 169.35 14.6298C168.75 14.6298 168.21 14.5098 167.73 14.2698C167.25 14.0298 166.81 13.6998 166.4 13.2598L164.45 15.2098C165.07 15.8698 165.74 16.3598 166.48 16.6698C167.22 16.9798 168.1 17.1398 169.11 17.1398C170.64 17.1398 171.83 16.7998 172.68 16.1298M160.18 16.4798C160.95 16.0398 161.56 15.4498 161.98 14.6898C162.41 13.9398 162.62 13.0698 162.62 12.0898V4.81984H159.55V12.3398C159.55 12.7698 159.46 13.1398 159.28 13.4498C159.1 13.7598 158.85 13.9898 158.55 14.1598C158.24 14.3298 157.88 14.4098 157.47 14.4098C157.06 14.4098 156.71 14.3298 156.39 14.1598C156.07 13.9998 155.81 13.7598 155.62 13.4398C155.43 13.1298 155.34 12.7498 155.34 12.3198V4.81984H152.28V12.0798C152.28 13.0598 152.5 13.9298 152.94 14.6898C153.38 15.4498 153.99 16.0498 154.77 16.4798C155.55 16.9198 156.45 17.1398 157.48 17.1398C158.51 17.1398 159.42 16.9198 160.2 16.4798M149.44 16.9298V4.81984H146.38V14.3898L147.17 16.9398H149.44V16.9298ZM148.04 13.7898L140.95 4.81984L140.1 7.95984L147.17 16.9298L148.04 13.7898ZM141.87 16.9298V7.31984L140.95 4.82984H138.81V16.9398H141.87V16.9298ZM134.03 12.3898H127.33V14.8198H134.03V12.3898ZM127.62 16.9298L131.17 6.74984H130.08L133.58 16.9298H136.79L132.13 4.81984H129.18L124.47 16.9298H127.63H127.62ZM121.45 16.6798C122.2 16.3798 122.86 15.9698 123.46 15.4398L121.41 13.3898C121.09 13.7098 120.72 13.9598 120.29 14.1298C119.86 14.3098 119.36 14.3898 118.8 14.3898C118.31 14.3898 117.86 14.2998 117.45 14.1298C117.04 13.9598 116.69 13.7198 116.4 13.4098C116.11 13.0998 115.88 12.7298 115.72 12.2998C115.55 11.8698 115.47 11.3798 115.47 10.8298C115.47 10.2798 115.55 9.82984 115.72 9.39984C115.88 8.96984 116.11 8.59984 116.4 8.28984C116.69 7.97984 117.04 7.74984 117.46 7.57984C117.88 7.40984 118.32 7.32984 118.8 7.32984C119.36 7.32984 119.85 7.41984 120.27 7.59984C120.69 7.77984 121.05 8.02984 121.35 8.34984L123.4 6.27984C122.82 5.75984 122.15 5.33984 121.38 5.03984C120.62 4.73984 119.76 4.58984 118.8 4.58984C117.84 4.58984 117.03 4.74984 116.25 5.06984C115.47 5.38984 114.79 5.82984 114.2 6.38984C113.61 6.94984 113.16 7.60984 112.84 8.35984C112.52 9.11984 112.36 9.93984 112.36 10.8298C112.36 11.7198 112.52 12.5598 112.85 13.3198C113.17 14.0798 113.63 14.7498 114.22 15.3098C114.81 15.8698 115.49 16.3198 116.28 16.6298C117.07 16.9498 117.92 17.1098 118.84 17.1098C119.84 17.1098 120.72 16.9598 121.46 16.6598M111.17 14.2798H105.35V16.9098H111.17V14.2798ZM105.96 4.79984H102.9V16.9098H105.96V4.81984V4.79984ZM97.61 16.4598C98.38 16.0198 98.99 15.4298 99.41 14.6698C99.84 13.9198 100.05 13.0498 100.05 12.0698V4.81984H96.98V12.3398C96.98 12.7698 96.89 13.1398 96.71 13.4498C96.53 13.7598 96.28 13.9898 95.98 14.1598C95.67 14.3298 95.31 14.4098 94.9 14.4098C94.49 14.4098 94.14 14.3298 93.82 14.1598C93.5 13.9998 93.24 13.7598 93.05 13.4398C92.86 13.1298 92.77 12.7498 92.77 12.3198V4.81984H89.71V12.0798C89.71 13.0598 89.93 13.9298 90.37 14.6898C90.81 15.4498 91.42 16.0498 92.2 16.4798C92.98 16.9198 93.88 17.1398 94.91 17.1398C95.94 17.1398 96.85 16.9198 97.63 16.4798M83.15 16.9298L87.74 4.81984H84.55L81.08 14.6098H82.48L79.06 4.81984H75.8L80.36 16.9298H83.14H83.15Z"
            fill="white" />
        <path
            d="M241.67 25.5797H236.3V27.6297H241.67V25.5797ZM243.23 21.9097H240.8V31.5197H243.23V21.9097ZM237.35 21.9097H234.92V31.5197H237.35V21.9097ZM227.6 21.9097H225.21V31.5197H227.6V21.9097ZM229.5 31.5197C230.17 31.5197 230.75 31.3997 231.24 31.1597C231.73 30.9197 232.11 30.5897 232.39 30.1597C232.66 29.7297 232.8 29.2497 232.8 28.7197C232.8 27.9897 232.55 27.3797 232.05 26.8997C231.55 26.4197 230.85 26.1197 229.93 26.0097V26.8397C230.76 26.7297 231.4 26.4697 231.83 26.0397C232.27 25.6197 232.49 25.0897 232.49 24.4497C232.49 23.9697 232.37 23.5397 232.14 23.1597C231.9 22.7797 231.57 22.4797 231.14 22.2497C230.71 22.0197 230.19 21.9097 229.58 21.9097H227.14V23.7097H229C229.32 23.7097 229.58 23.7897 229.78 23.9497C229.98 24.1097 230.09 24.3597 230.09 24.6997C230.09 25.0397 229.99 25.2697 229.78 25.4297C229.58 25.5897 229.31 25.6697 228.99 25.6697H227.15V27.4097H229.14C229.4 27.4097 229.62 27.4597 229.8 27.5597C229.98 27.6597 230.12 27.7897 230.23 27.9597C230.33 28.1297 230.39 28.3297 230.39 28.5597C230.39 28.8897 230.28 29.1697 230.05 29.3897C229.82 29.6097 229.53 29.7197 229.17 29.7197H227.15V31.5197H229.51H229.5ZM214.99 31.5197V25.9297L214.62 26.0197L216.79 29.3397H218.39L220.57 26.0197L220.19 25.9297V31.5197H222.6V21.9097H220.85L217.19 27.4797H217.99L214.32 21.9097H212.57V31.5197H214.98H214.99ZM208.19 31.0497C208.93 30.6397 209.51 30.0397 209.93 29.2397C210.35 28.4397 210.55 27.4697 210.55 26.3297V25.9597H205.34V27.9497L209.72 28.0597L208.08 26.9897C208.08 27.5097 207.99 27.9697 207.8 28.3497C207.61 28.7297 207.33 29.0197 206.97 29.2097C206.6 29.3997 206.16 29.4997 205.63 29.4997C205.1 29.4997 204.64 29.3797 204.24 29.1497C203.84 28.9197 203.52 28.5897 203.3 28.1697C203.07 27.7497 202.96 27.2497 202.96 26.6897C202.96 26.1297 203.08 25.6497 203.32 25.2297C203.56 24.8097 203.89 24.4797 204.3 24.2497C204.72 24.0197 205.18 23.8997 205.7 23.8997C206.22 23.8997 206.67 23.9997 207.06 24.1897C207.45 24.3797 207.81 24.6797 208.13 25.0597L209.76 23.4297C209.33 22.8997 208.76 22.4797 208.07 22.1797C207.37 21.8797 206.6 21.7297 205.74 21.7297C205.02 21.7297 204.34 21.8497 203.7 22.0997C203.06 22.3497 202.5 22.6997 202.03 23.1397C201.56 23.5797 201.18 24.1097 200.91 24.7197C200.64 25.3297 200.51 25.9797 200.51 26.6897C200.51 27.3997 200.64 28.0497 200.9 28.6597C201.16 29.2697 201.52 29.7897 201.98 30.2397C202.44 30.6897 202.98 31.0397 203.61 31.2797C204.23 31.5297 204.91 31.6497 205.63 31.6497C206.62 31.6497 207.48 31.4397 208.22 31.0297M193.21 31.1397C193.82 30.7897 194.3 30.3197 194.64 29.7197C194.98 29.1197 195.15 28.4397 195.15 27.6597V21.8797H192.71V27.8497C192.71 28.1897 192.64 28.4897 192.49 28.7297C192.35 28.9697 192.15 29.1597 191.91 29.2897C191.67 29.4197 191.38 29.4897 191.06 29.4897C190.74 29.4897 190.46 29.4197 190.2 29.2897C189.94 29.1597 189.74 28.9697 189.59 28.7197C189.44 28.4697 189.37 28.1797 189.37 27.8297V21.8797H186.94V27.6397C186.94 28.4197 187.11 29.1097 187.46 29.7097C187.81 30.3097 188.29 30.7897 188.91 31.1297C189.53 31.4797 190.25 31.6497 191.06 31.6497C191.87 31.6497 192.6 31.4797 193.22 31.1297M183.24 27.8797H177.93V29.8097H183.24V27.8797ZM178.16 31.4897L180.98 23.4097H180.11L182.89 31.4897H185.44L181.74 21.8797H179.39L175.65 31.4897H178.16ZM169.04 21.8797H166.65V31.4897H169.04V21.8797ZM170.94 31.4897C171.61 31.4897 172.19 31.3697 172.68 31.1297C173.17 30.8897 173.55 30.5597 173.83 30.1297C174.1 29.6997 174.24 29.2197 174.24 28.6897C174.24 27.9597 173.99 27.3497 173.49 26.8697C172.99 26.3897 172.29 26.0897 171.37 25.9797V26.8097C172.2 26.6997 172.84 26.4397 173.27 26.0097C173.71 25.5897 173.93 25.0597 173.93 24.4197C173.93 23.9397 173.81 23.5097 173.58 23.1297C173.34 22.7497 173.01 22.4497 172.58 22.2197C172.15 21.9897 171.63 21.8797 171.02 21.8797H168.58V23.6797H170.44C170.76 23.6797 171.02 23.7597 171.22 23.9197C171.42 24.0797 171.53 24.3297 171.53 24.6697C171.53 25.0097 171.43 25.2397 171.22 25.3997C171.02 25.5597 170.75 25.6397 170.43 25.6397H168.59V27.3797H170.58C170.84 27.3797 171.06 27.4297 171.24 27.5297C171.42 27.6297 171.56 27.7597 171.67 27.9297C171.77 28.0997 171.83 28.2997 171.83 28.5297C171.83 28.8597 171.72 29.1397 171.49 29.3597C171.26 29.5797 170.97 29.6897 170.61 29.6897H168.59V31.4897H170.95H170.94ZM164.05 31.4897V21.8797H161.62V29.4697L162.24 31.4897H164.04H164.05ZM162.94 28.9997L157.31 21.8797L156.63 24.3697L162.24 31.4897L162.93 28.9997H162.94ZM158.05 31.4897V23.8597L157.32 21.8797H155.63V31.4897H158.06H158.05ZM153.28 21.8797H148.14V23.9297H153.28V21.8797ZM152.86 25.5897H148.14V27.5797H152.86V25.5897ZM153.35 29.4397H148.14V31.4897H153.35V29.4397ZM148.65 21.8797H146.22V31.4897H148.65V21.8797ZM143.61 31.4897V21.8797H141.18V29.4697L141.8 31.4897H143.6H143.61ZM142.5 28.9997L136.87 21.8797L136.19 24.3697L141.8 31.4897L142.49 28.9997H142.5ZM137.61 31.4897V23.8597L136.88 21.8797H135.19V31.4897H137.62H137.61ZM132.57 21.8797H130.14V31.4897H132.57V21.8797ZM125.97 25.5497H120.6V27.5997H125.97V25.5497ZM127.53 21.8797H125.1V31.4897H127.53V21.8797ZM121.65 21.8797H119.22V31.4897H121.65V21.8797ZM115.69 31.2997C116.28 31.0597 116.81 30.7297 117.28 30.3197L115.65 28.6897C115.4 28.9397 115.1 29.1397 114.76 29.2797C114.42 29.4197 114.03 29.4897 113.57 29.4897C113.18 29.4897 112.82 29.4197 112.5 29.2897C112.17 29.1497 111.9 28.9597 111.67 28.7197C111.44 28.4797 111.26 28.1797 111.13 27.8397C111 27.4997 110.93 27.1097 110.93 26.6697C110.93 26.2297 111 25.8697 111.13 25.5297C111.26 25.1897 111.44 24.8897 111.67 24.6497C111.9 24.4097 112.18 24.2197 112.51 24.0897C112.84 23.9597 113.19 23.8897 113.57 23.8897C114.01 23.8897 114.4 23.9597 114.74 24.1097C115.07 24.2497 115.36 24.4497 115.59 24.7097L117.22 23.0697C116.76 22.6497 116.23 22.3297 115.62 22.0897C115.01 21.8497 114.33 21.7297 113.57 21.7297C112.81 21.7297 112.16 21.8597 111.54 22.1097C110.92 22.3597 110.38 22.7097 109.91 23.1497C109.44 23.5897 109.09 24.1097 108.83 24.7197C108.58 25.3197 108.45 25.9697 108.45 26.6797C108.45 27.3897 108.58 28.0497 108.84 28.6597C109.1 29.2697 109.46 29.7897 109.92 30.2397C110.39 30.6897 110.93 31.0397 111.55 31.2897C112.17 31.5397 112.85 31.6697 113.58 31.6697C114.38 31.6697 115.07 31.5497 115.66 31.3097M105.68 30.8697C106.36 30.3397 106.7 29.5997 106.7 28.6497C106.7 28.1597 106.62 27.7497 106.46 27.3997C106.3 27.0597 106.08 26.7697 105.82 26.5497C105.55 26.3197 105.26 26.1397 104.95 25.9897C104.63 25.8497 104.32 25.7197 103.99 25.6097C103.67 25.4997 103.38 25.3897 103.11 25.2797C102.84 25.1697 102.63 25.0497 102.47 24.9197C102.31 24.7897 102.23 24.6197 102.23 24.3997C102.23 24.1797 102.32 24.0197 102.51 23.8997C102.7 23.7797 102.96 23.7197 103.3 23.7197C103.66 23.7197 103.99 23.7897 104.28 23.9397C104.57 24.0797 104.87 24.3097 105.15 24.5997L106.7 23.0497C106.33 22.6297 105.85 22.3097 105.26 22.0697C104.67 21.8297 104.02 21.7197 103.33 21.7197C102.64 21.7197 102.02 21.8397 101.5 22.0697C100.98 22.2997 100.57 22.6397 100.27 23.0797C99.98 23.5197 99.83 24.0497 99.83 24.6497C99.83 25.1397 99.91 25.5397 100.07 25.8597C100.23 26.1797 100.45 26.4497 100.71 26.6697C100.98 26.8897 101.27 27.0697 101.58 27.2197C101.9 27.3597 102.22 27.4897 102.54 27.5997C102.87 27.7097 103.16 27.8197 103.42 27.9297C103.68 28.0397 103.9 28.1697 104.06 28.3097C104.23 28.4497 104.31 28.6397 104.31 28.8797C104.31 29.1197 104.2 29.3197 103.98 29.4597C103.76 29.5997 103.44 29.6697 103.04 29.6697C102.56 29.6697 102.13 29.5797 101.75 29.3897C101.37 29.1997 101.02 28.9297 100.69 28.5897L99.14 30.1397C99.63 30.6597 100.17 31.0497 100.75 31.2997C101.34 31.5497 102.03 31.6697 102.84 31.6697C104.05 31.6697 105 31.3997 105.67 30.8697M96.01 27.8997H90.7V29.8297H96.01V27.8997ZM90.93 31.5097L93.75 23.4297H92.88L95.66 31.5097H98.21L94.51 21.8997H92.16L88.42 31.5097H90.93ZM78.91 31.5097V25.9197L78.54 26.0097L80.71 29.3297H82.31L84.49 26.0097L84.11 25.9197V31.5097H86.52V21.8997H84.77L81.11 27.4697H81.91L78.24 21.8997H76.49V31.5097H78.9H78.91Z"
            fill="white" />
        <path
            d="M178.29 4.53984L177.23 3.24984L176.89 3.33984L177.86 4.53984H178.29ZM176.68 1.95984H176.33V4.54984H176.68V1.95984ZM177.26 3.37984C177.51 3.37984 177.71 3.31984 177.85 3.18984C177.99 3.05984 178.07 2.88984 178.07 2.66984C178.07 2.46984 178 2.29984 177.85 2.15984C177.71 2.02984 177.51 1.95984 177.26 1.95984H176.51V2.27984H177.26C177.41 2.27984 177.52 2.31984 177.6 2.39984C177.67 2.47984 177.71 2.56984 177.71 2.67984C177.71 2.78984 177.67 2.88984 177.6 2.95984C177.52 3.02984 177.41 3.06984 177.27 3.06984H176.52V3.38984H177.27L177.26 3.37984ZM176.04 5.14984C175.72 4.95984 175.47 4.69984 175.29 4.36984C175.11 4.03984 175.02 3.67984 175.02 3.27984C175.02 2.87984 175.11 2.51984 175.29 2.18984C175.47 1.86984 175.71 1.60984 176.03 1.41984C176.35 1.22984 176.71 1.13984 177.13 1.13984C177.55 1.13984 177.92 1.22984 178.23 1.41984C178.55 1.60984 178.8 1.86984 178.98 2.18984C179.16 2.50984 179.25 2.87984 179.25 3.27984C179.25 3.67984 179.16 4.04984 178.98 4.36984C178.8 4.69984 178.55 4.95984 178.23 5.14984C177.91 5.33984 177.54 5.43984 177.11 5.43984C176.71 5.43984 176.35 5.33984 176.03 5.14984M178.39 5.40984C178.75 5.18984 179.04 4.89984 179.24 4.52984C179.45 4.15984 179.55 3.73984 179.55 3.27984C179.55 2.81984 179.45 2.40984 179.24 2.03984C179.04 1.66984 178.75 1.37984 178.38 1.15984C178.01 0.939844 177.62 0.839844 177.14 0.839844C176.66 0.839844 176.24 0.949844 175.88 1.15984C175.52 1.36984 175.24 1.66984 175.03 2.02984C174.82 2.38984 174.72 2.79984 174.72 3.25984C174.72 3.71984 174.82 4.13984 175.03 4.50984C175.23 4.87984 175.52 5.17984 175.89 5.39984C176.26 5.61984 176.68 5.72984 177.15 5.72984C177.62 5.72984 178.05 5.61984 178.41 5.40984"
            fill="white" />
        <path
            d="M240.13 9.2299C239.68 9.4999 239.38 9.7299 239.22 9.9099C238.95 10.2099 238.82 10.5799 238.82 11.0199C238.82 11.4299 238.96 11.7999 239.23 12.1299C239.5 12.4599 239.94 12.6199 240.55 12.6199C240.96 12.6199 241.32 12.5199 241.63 12.3299C241.81 12.2199 242.01 12.0499 242.22 11.8099L242.77 12.4799H243.69L242.66 11.2199C242.66 11.2899 242.73 11.1499 242.86 10.8099C242.99 10.4699 243.08 10.1099 243.13 9.7399H242.45C242.42 9.9299 242.39 10.0699 242.37 10.1799C242.34 10.2799 242.29 10.4399 242.22 10.6499L241.16 9.3799C241.48 9.1699 241.71 8.9799 241.85 8.8099C242.08 8.5299 242.2 8.1999 242.2 7.8299C242.2 7.5099 242.09 7.2299 241.86 6.9999C241.63 6.7699 241.32 6.6499 240.91 6.6499C240.49 6.6499 240.15 6.7699 239.89 7.0199C239.64 7.2699 239.51 7.5799 239.51 7.9599C239.51 8.1399 239.55 8.3299 239.64 8.5199C239.72 8.7099 239.89 8.9499 240.13 9.2299ZM240.6 11.9799C240.34 11.9799 240.1 11.8999 239.88 11.7299C239.65 11.5599 239.54 11.3199 239.54 11.0199C239.54 10.7299 239.63 10.4899 239.8 10.2899C239.91 10.1599 240.16 9.9699 240.53 9.7199L241.84 11.3299C241.73 11.4999 241.56 11.6499 241.35 11.7799C241.14 11.9099 240.89 11.9799 240.59 11.9799M240.78 8.8999C240.57 8.6599 240.42 8.4699 240.34 8.3299C240.25 8.1799 240.21 8.0299 240.21 7.8699C240.21 7.7499 240.24 7.6399 240.3 7.5399C240.41 7.3399 240.62 7.2499 240.91 7.2499C241.1 7.2499 241.25 7.3099 241.37 7.4399C241.48 7.5599 241.54 7.7099 241.54 7.8799C241.54 8.0999 241.46 8.2999 241.31 8.4799C241.22 8.5899 241.04 8.7399 240.8 8.9099"
            fill="white" />
    </g>
    <defs>
        <clipPath id="clip0_208_762">
            <rect width="243.82" height="30.84" fill="white" transform="translate(0 0.839844)" />
        </clipPath>
    </defs>
</svg>
    