<svg xmlns="http://www.w3.org/2000/svg" width="22" height="23" viewBox="0 0 22 23" fill="none">
    <path
        d="M11.0261 14.354L12.4401 15.769L16.6831 11.526L12.4401 7.28296L11.0261 8.69696L12.8541 10.526L5.3171 10.526L5.3171 12.526L12.8541 12.526L11.0261 14.354Z"
        fill="currentColor" />
    <path fillRule="evenodd" clipRule="evenodd"
        d="M4 0.499999C2.93913 0.499999 1.92172 0.921427 1.17157 1.67157C0.421429 2.42172 -1.28474e-07 3.43913 -1.74846e-07 4.5L-7.86805e-07 18.5C-8.33177e-07 19.5609 0.421428 20.5783 1.17157 21.3284C1.92172 22.0786 2.93913 22.5 4 22.5L18 22.5C19.0609 22.5 20.0783 22.0786 20.8284 21.3284C21.5786 20.5783 22 19.5609 22 18.5L22 4.5C22 3.43913 21.5786 2.42172 20.8284 1.67157C20.0783 0.921427 19.0609 0.5 18 0.5L4 0.499999ZM2 4.5L2 18.5C2 19.0304 2.21071 19.5391 2.58579 19.9142C2.96086 20.2893 3.46957 20.5 4 20.5L18 20.5C18.5304 20.5 19.0391 20.2893 19.4142 19.9142C19.7893 19.5391 20 19.0304 20 18.5L20 4.5C20 3.96957 19.7893 3.46086 19.4142 3.08579C19.0391 2.71071 18.5304 2.5 18 2.5L4 2.5C3.46957 2.5 2.96086 2.71071 2.58579 3.08579C2.21071 3.46086 2 3.96957 2 4.5Z"
        fill="currentColor" />
</svg>