<svg width="24" height="25" viewBox="0 0 24 25" fill="none" xmlns="http://www.w3.org/2000/svg">
<path d="M12.0261 15.354L13.4401 16.769L17.6831 12.526L13.4401 8.28296L12.0261 9.69696L13.8541 11.526L6.3171 11.526L6.3171 13.526L13.8541 13.526L12.0261 15.354Z" fill="#009EE0"/>
<path fillRule="evenodd" clipRule="evenodd" d="M5 1.5C3.93913 1.5 2.92172 1.92143 2.17157 2.67157C1.42143 3.42172 1 4.43913 1 5.5L0.999999 19.5C0.999999 20.5609 1.42143 21.5783 2.17157 22.3284C2.92172 23.0786 3.93913 23.5 5 23.5L19 23.5C20.0609 23.5 21.0783 23.0786 21.8284 22.3284C22.5786 21.5783 23 20.5609 23 19.5L23 5.5C23 4.43913 22.5786 3.42172 21.8284 2.67157C21.0783 1.92143 20.0609 1.5 19 1.5L5 1.5ZM3 5.5L3 19.5C3 20.0304 3.21071 20.5391 3.58579 20.9142C3.96086 21.2893 4.46957 21.5 5 21.5L19 21.5C19.5304 21.5 20.0391 21.2893 20.4142 20.9142C20.7893 20.5391 21 20.0304 21 19.5L21 5.5C21 4.96957 20.7893 4.46086 20.4142 4.08579C20.0391 3.71071 19.5304 3.5 19 3.5L5 3.5C4.46957 3.5 3.96086 3.71071 3.58579 4.08579C3.21071 4.46086 3 4.96957 3 5.5Z" fill="#009EE0"/>
</svg>
