<svg xmlns="http://www.w3.org/2000/svg" width="107" height="100" viewBox="0 0 107 100" fill="none">
    <path
        d="M89.8706 20.6897H20.9051C18.0603 20.6897 15.7327 23.0173 15.7327 25.8621V74.138C15.7327 76.9828 18.0603 79.3104 20.9051 79.3104H89.8706C92.7154 79.3104 95.043 76.9828 95.043 74.138V25.8621C95.043 23.0173 92.7154 20.6897 89.8706 20.6897ZM20.9051 24.138H89.8706C90.5387 24.138 91.1422 24.5259 91.4223 25.1509L58.5559 50.5604C56.7025 52.0044 54.0947 52.0044 52.2413 50.5604L19.3534 25.1509C19.6335 24.5259 20.237 24.138 20.9051 24.138ZM89.8706 75.8621H20.9051C20.237 75.8621 19.6335 75.4742 19.3534 74.8492L42.6508 56.8319C43.4051 56.25 43.5559 55.1725 42.974 54.4181C42.3921 53.6638 41.3146 53.513 40.5603 54.0949H40.5387L19.1809 70.625V29.375L50.1292 53.2759C53.2327 55.6681 57.5646 55.6681 60.668 53.2759L91.5947 29.375V70.625L70.237 54.1164C69.4827 53.5345 68.4051 53.6638 67.8232 54.4181C67.2413 55.1725 67.3706 56.25 68.1249 56.8319L91.4223 74.8492C91.1422 75.4742 90.5387 75.8621 89.8706 75.8621Z"
        fill="#009EE0" />
</svg>