<svg width="458" height="138" viewBox="0 0 458 138" fill="none" xmlns="http://www.w3.org/2000/svg">
<rect y="0.192871" width="137.615" height="137.615" rx="3.58372" fill="#009EE0"/>
<g clip-path="url(#clip0_865_9)">
<path d="M15.1611 44.9114L34.984 92.651H87.1178V85.6711H38.9943L21.7218 44.9114H15.1611Z" fill="white"/>
<path d="M93.2036 65.6937H105.991C110.933 65.6937 114.944 69.6648 114.944 74.5804V76.8021C114.944 81.7002 110.933 85.6887 105.991 85.6887H86.168V92.6686H105.991C114.82 92.6686 121.979 85.5663 121.979 76.8021V74.5804C121.979 65.8162 114.82 58.7139 105.991 58.7139H86.168V65.6937H93.2036Z" fill="white"/>
<path d="M48.8971 44.7539H54.9829V79.4784H49.3896L34.5093 44.7539H40.9117L48.8971 63.3144V44.7539Z" fill="white"/>
<path d="M113.026 45.3839H66.644V78.6914H105.991V72.6562H84.2331C79.0795 72.4813 74.9637 68.2829 74.9637 63.1398V60.9181C74.9637 55.775 79.0795 51.5766 84.2331 51.4017H105.991H113.026V45.3665V45.3839Z" fill="white"/>
</g>
<g clip-path="url(#clip1_865_9)">
<path d="M458 65.584H446.806V70.1683H458V65.584ZM447.873 49.0598H442.521V70.1683H447.873V49.0598ZM433.74 57.1302H421.917V61.6273H433.74V57.1302ZM437.169 49.0598H431.816V70.1683H437.169V49.0598ZM424.208 49.0598H418.856V70.1683H424.208V49.0598ZM410.495 62.2548H398.776V66.4904H410.495V62.2548ZM399.283 70.1683L405.493 52.4239H403.586L409.708 70.1683H415.323L407.172 49.0598H401.994L393.756 70.1683H399.283ZM393.791 49.0598H375.478V53.6441H393.791V49.0598ZM387.285 49.2167H381.932V70.1857H387.285V49.2167ZM371.001 68.7738C372.487 67.606 373.239 65.9675 373.239 63.8932C373.239 62.83 373.064 61.9062 372.697 61.1567C372.33 60.4071 371.858 59.7796 371.28 59.2741C370.686 58.7861 370.056 58.3678 369.356 58.054C368.657 57.7403 367.957 57.4614 367.258 57.2173C366.558 56.9733 365.911 56.7467 365.316 56.5027C364.721 56.2587 364.249 55.9972 363.899 55.7183C363.532 55.4394 363.357 55.056 363.357 54.5679C363.357 54.0798 363.567 53.7312 363.987 53.4698C364.407 53.2083 364.984 53.0863 365.718 53.0863C366.523 53.0863 367.24 53.2432 367.887 53.5569C368.534 53.8707 369.182 54.3587 369.811 55.0211L373.222 51.6221C372.4 50.7157 371.35 50.0011 370.039 49.4782C368.727 48.9553 367.31 48.7112 365.788 48.7112C364.267 48.7112 362.902 48.9727 361.748 49.4782C360.593 49.9837 359.684 50.7157 359.037 51.6919C358.39 52.668 358.057 53.8184 358.057 55.1431C358.057 56.2238 358.232 57.0953 358.6 57.81C358.967 58.5072 359.439 59.1173 360.016 59.5879C360.611 60.076 361.241 60.4769 361.94 60.7906C362.64 61.1044 363.34 61.3832 364.057 61.6273C364.774 61.8713 365.421 62.0979 365.998 62.3419C366.575 62.586 367.048 62.8648 367.415 63.1786C367.782 63.4923 367.975 63.9107 367.975 64.4336C367.975 64.9565 367.73 65.3923 367.24 65.706C366.75 66.0198 366.068 66.1592 365.159 66.1592C364.109 66.1592 363.165 65.9501 362.325 65.5317C361.486 65.1134 360.716 64.5382 359.999 63.7712L356.588 67.1702C357.672 68.3206 358.844 69.1747 360.139 69.7151C361.433 70.2554 362.972 70.5343 364.739 70.5343C367.415 70.5343 369.496 69.9417 370.983 68.7738M352.932 59.1696H340.059V61.9759H352.932V59.1696ZM333.588 68.7738C335.074 67.606 335.826 65.9675 335.826 63.8932C335.826 62.83 335.651 61.9062 335.284 61.1567C334.934 60.4071 334.445 59.7796 333.867 59.2741C333.273 58.7861 332.643 58.3678 331.943 58.054C331.244 57.7403 330.544 57.4614 329.844 57.2173C329.145 56.9733 328.498 56.7467 327.903 56.5027C327.308 56.2587 326.836 55.9972 326.486 55.7183C326.136 55.4394 325.944 55.056 325.944 54.5679C325.944 54.0798 326.154 53.7312 326.574 53.4698C326.993 53.2083 327.571 53.0863 328.305 53.0863C329.11 53.0863 329.827 53.2432 330.474 53.5569C331.121 53.8707 331.768 54.3587 332.398 55.0211L335.809 51.6221C334.987 50.7157 333.937 50.0011 332.626 49.4782C331.314 48.9553 329.897 48.7112 328.375 48.7112C326.854 48.7112 325.489 48.9727 324.335 49.4782C323.18 49.9837 322.271 50.7157 321.624 51.6919C320.977 52.668 320.644 53.8184 320.644 55.1431C320.644 56.2238 320.819 57.0953 321.186 57.81C321.536 58.5072 322.026 59.1173 322.603 59.5879C323.198 60.076 323.828 60.4769 324.527 60.7906C325.227 61.1044 325.926 61.3832 326.644 61.6273C327.361 61.8713 328.008 62.0979 328.585 62.3419C329.162 62.586 329.635 62.8648 330.002 63.1786C330.369 63.4923 330.562 63.9107 330.562 64.4336C330.562 64.9565 330.317 65.3923 329.827 65.706C329.337 66.0198 328.655 66.1592 327.746 66.1592C326.696 66.1592 325.752 65.9501 324.912 65.5317C324.072 65.1134 323.303 64.5382 322.586 63.7712L319.175 67.1702C320.259 68.3206 321.431 69.1747 322.726 69.7151C324.02 70.2554 325.559 70.5343 327.326 70.5343C330.002 70.5343 332.083 69.9417 333.57 68.7738M311.706 69.3839C313.053 68.6169 314.12 67.5885 314.855 66.2638C315.607 64.9565 315.974 63.4401 315.974 61.7319V49.0598H310.604V62.1676C310.604 62.9171 310.447 63.5621 310.132 64.1024C309.817 64.6428 309.38 65.0437 308.855 65.34C308.313 65.6363 307.683 65.7758 306.966 65.7758C306.249 65.7758 305.637 65.6363 305.077 65.34C304.518 65.0611 304.063 64.6428 303.731 64.085C303.398 63.5446 303.241 62.8823 303.241 62.1328V49.0598H297.889V61.7144C297.889 63.4226 298.273 64.9391 299.043 66.2638C299.813 67.5885 300.88 68.6344 302.244 69.3839C303.608 70.1508 305.182 70.5343 306.984 70.5343C308.785 70.5343 310.377 70.1508 311.741 69.3839M292.921 70.1683V49.0598H287.569V65.7409L288.951 70.1857H292.921V70.1683ZM290.472 64.6951L278.071 49.0598L276.585 54.533L288.951 70.1683L290.472 64.6951ZM279.681 70.1683V53.4175L278.071 49.0773H274.328V70.1857H279.681V70.1683ZM265.968 62.2548H254.249V66.4904H265.968V62.2548ZM254.756 70.1683L260.965 52.4239H259.059L265.181 70.1683H270.795L262.644 49.0598H257.485L249.246 70.1683H254.774H254.756ZM243.964 69.7325C245.276 69.2096 246.43 68.4949 247.48 67.5711L243.894 63.9978C243.334 64.5556 242.687 64.9914 241.935 65.2877C241.183 65.6014 240.309 65.7409 239.329 65.7409C238.472 65.7409 237.685 65.584 236.968 65.2877C236.251 64.9914 235.638 64.573 235.131 64.0327C234.624 63.4923 234.222 62.8474 233.942 62.0979C233.645 61.3484 233.505 60.4943 233.505 59.5356C233.505 58.5769 233.645 57.7926 233.942 57.043C234.222 56.2935 234.624 55.6486 235.131 55.1082C235.638 54.5679 236.251 54.167 236.985 53.8707C237.72 53.5744 238.489 53.4349 239.329 53.4349C240.309 53.4349 241.166 53.5918 241.9 53.9055C242.635 54.2193 243.264 54.6551 243.789 55.2128L247.375 51.6047C246.36 50.6983 245.188 49.9662 243.842 49.4433C242.512 48.9204 241.008 48.6589 239.329 48.6589C237.65 48.6589 236.233 48.9378 234.869 49.4956C233.505 50.0534 232.315 50.8203 231.283 51.7964C230.251 52.7725 229.464 53.923 228.904 55.2303C228.345 56.555 228.065 57.9843 228.065 59.5356C228.065 61.0869 228.345 62.5511 228.922 63.8758C229.482 65.2005 230.286 66.3684 231.318 67.3445C232.35 68.3206 233.54 69.105 234.921 69.6453C236.303 70.2031 237.79 70.482 239.399 70.482C241.148 70.482 242.687 70.2205 243.982 69.6976M225.983 65.5492H215.804V70.1334H225.983V65.5492ZM216.871 49.025H211.519V70.1334H216.871V49.0598V49.025ZM202.266 69.349C203.613 68.5821 204.68 67.5537 205.414 66.2289C206.166 64.9217 206.534 63.4052 206.534 61.697V49.0598H201.164V62.1676C201.164 62.9171 201.006 63.5621 200.692 64.1024C200.377 64.6428 199.94 65.0437 199.415 65.34C198.873 65.6363 198.243 65.7758 197.526 65.7758C196.809 65.7758 196.196 65.6363 195.637 65.34C195.077 65.0611 194.622 64.6428 194.29 64.085C193.958 63.5446 193.8 62.8823 193.8 62.1328V49.0598H188.448V61.7144C188.448 63.4226 188.833 64.9391 189.602 66.2638C190.372 67.5885 191.439 68.6344 192.803 69.3839C194.168 70.1508 195.742 70.5343 197.543 70.5343C199.345 70.5343 200.937 70.1508 202.301 69.3839M176.974 70.1683L185.002 49.0598H179.423L173.353 66.1244H175.802L169.82 49.0598H164.118L172.094 70.1683H176.956H176.974Z" fill="#169DD9"/>
<path d="M454.239 85.2458H444.847V88.819H454.239V85.2458ZM456.968 78.8488H452.718V95.5995H456.968V78.8488ZM446.683 78.8488H442.433V95.5995H446.683V78.8488ZM429.63 78.8488H425.449V95.5995H429.63V78.8488ZM432.953 95.5995C434.125 95.5995 435.139 95.3904 435.996 94.972C436.853 94.5537 437.518 93.9785 438.008 93.229C438.48 92.4795 438.725 91.6428 438.725 90.719C438.725 89.4465 438.288 88.3833 437.413 87.5466C436.539 86.7099 435.314 86.187 433.705 85.9953V87.442C435.157 87.2503 436.276 86.7971 437.028 86.0476C437.798 85.3155 438.183 84.3917 438.183 83.2761C438.183 82.4395 437.973 81.6899 437.571 81.0276C437.151 80.3652 436.574 79.8423 435.822 79.4414C435.069 79.0405 434.16 78.8488 433.093 78.8488H428.825V81.9863H432.078C432.638 81.9863 433.093 82.1257 433.443 82.4046C433.793 82.6835 433.985 83.1192 433.985 83.7119C433.985 84.3045 433.81 84.7054 433.443 84.9843C433.093 85.2632 432.621 85.4027 432.061 85.4027H428.843V88.4356H432.323C432.778 88.4356 433.163 88.5227 433.478 88.697C433.793 88.8713 434.037 89.0979 434.23 89.3943C434.405 89.6906 434.51 90.0392 434.51 90.4401C434.51 91.0153 434.317 91.5033 433.915 91.8868C433.513 92.2703 433.005 92.462 432.376 92.462H428.843V95.5995H432.97H432.953ZM407.574 95.5995V85.8558L406.927 86.0127L410.722 91.7997H413.521L417.334 86.0127L416.669 85.8558V95.5995H420.884V78.8488H417.823L411.422 88.5576H412.821L406.402 78.8488H403.341V95.5995H407.556H407.574ZM395.68 94.7803C396.974 94.0656 397.989 93.0198 398.723 91.6254C399.458 90.2309 399.808 88.5402 399.808 86.5531V85.9081H390.695V89.3768L398.356 89.5686L395.487 87.7035C395.487 88.6099 395.33 89.4117 394.998 90.074C394.665 90.7364 394.176 91.2419 393.546 91.5731C392.899 91.9043 392.129 92.0786 391.202 92.0786C390.275 92.0786 389.471 91.8694 388.771 91.4685C388.071 91.0676 387.512 90.4924 387.127 89.7603C386.725 89.0282 386.532 88.1567 386.532 87.1806C386.532 86.2045 386.742 85.3678 387.162 84.6357C387.582 83.9036 388.159 83.3284 388.876 82.9275C389.611 82.5266 390.415 82.3174 391.325 82.3174C392.234 82.3174 393.021 82.4917 393.703 82.8229C394.386 83.1541 395.015 83.677 395.575 84.3394L398.426 81.4982C397.674 80.5744 396.677 79.8423 395.47 79.3194C394.246 78.7965 392.899 78.535 391.395 78.535C390.135 78.535 388.946 78.7442 387.826 79.1799C386.707 79.6157 385.728 80.2258 384.906 80.9927C384.083 81.7597 383.419 82.6835 382.947 83.7467C382.474 84.81 382.247 85.943 382.247 87.1806C382.247 88.4181 382.474 89.5511 382.929 90.6144C383.384 91.6777 384.013 92.584 384.818 93.3684C385.623 94.1528 386.567 94.7629 387.669 95.1812C388.754 95.617 389.943 95.8261 391.202 95.8261C392.934 95.8261 394.438 95.4601 395.732 94.7454M369.479 94.9372C370.545 94.3271 371.385 93.5079 371.98 92.462C372.574 91.4162 372.872 90.2309 372.872 88.8713V78.7965H368.604V89.2025C368.604 89.7952 368.482 90.3181 368.219 90.7364C367.974 91.1547 367.624 91.4859 367.205 91.7125C366.785 91.9391 366.278 92.0611 365.718 92.0611C365.158 92.0611 364.669 91.9391 364.214 91.7125C363.759 91.4859 363.409 91.1547 363.147 90.719C362.884 90.2832 362.762 89.7777 362.762 89.1677V78.7965H358.512V88.8365C358.512 90.1961 358.809 91.3988 359.421 92.4446C360.033 93.4904 360.873 94.3271 361.957 94.9197C363.042 95.5298 364.301 95.8261 365.718 95.8261C367.135 95.8261 368.412 95.5298 369.496 94.9197M352.04 89.2548H342.752V92.6189H352.04V89.2548ZM343.155 95.5472L348.087 81.4633H346.565L351.428 95.5472H355.888L349.416 78.7965H345.306L338.764 95.5472H343.155ZM327.203 78.7965H323.023V95.5472H327.203V78.7965ZM330.526 95.5472C331.698 95.5472 332.713 95.3381 333.57 94.9197C334.427 94.5014 335.091 93.9262 335.581 93.1767C336.053 92.4272 336.298 91.5905 336.298 90.6667C336.298 89.3943 335.861 88.331 334.986 87.4943C334.112 86.6577 332.888 86.1347 331.278 85.943V87.3897C332.73 87.198 333.85 86.7448 334.602 85.9953C335.371 85.2632 335.756 84.3394 335.756 83.2238C335.756 82.3872 335.546 81.6377 335.144 80.9753C334.724 80.3129 334.147 79.79 333.395 79.3891C332.643 78.9882 331.733 78.7965 330.666 78.7965H326.398V81.934H329.652C330.211 81.934 330.666 82.0734 331.016 82.3523C331.366 82.6312 331.558 83.067 331.558 83.6596C331.558 84.2522 331.383 84.6531 331.016 84.932C330.666 85.2109 330.194 85.3504 329.634 85.3504H326.416V88.3833H329.897C330.351 88.3833 330.736 88.4704 331.051 88.6447C331.366 88.819 331.611 89.0456 331.803 89.342C331.978 89.6383 332.083 89.9869 332.083 90.3878C332.083 90.963 331.891 91.4511 331.488 91.8345C331.086 92.218 330.579 92.4097 329.949 92.4097H326.416V95.5472H330.544H330.526ZM318.475 95.5472V78.7965H314.225V92.0263L315.309 95.5472H318.458H318.475ZM316.534 91.207L306.686 78.7965L305.497 83.1367L315.309 95.5472L316.516 91.207H316.534ZM307.981 95.5472V82.2477L306.704 78.7965H303.748V95.5472H307.998H307.981ZM299.637 78.7965H290.647V82.3697H299.637V78.7965ZM298.903 85.2632H290.647V88.7319H298.903V85.2632ZM299.76 91.974H290.647V95.5472H299.76V91.974ZM291.539 78.7965H287.289V95.5472H291.539V78.7965ZM282.724 95.5472V78.7965H278.473V92.0263L279.558 95.5472H282.706H282.724ZM280.782 91.207L270.935 78.7965L269.745 83.1367L279.558 95.5472L280.765 91.207H280.782ZM272.229 95.5472V82.2477L270.952 78.7965H267.996V95.5472H272.247H272.229ZM263.414 78.7965H259.163V95.5472H263.414V78.7965ZM251.87 85.1935H242.477V88.7668H251.87V85.1935ZM254.598 78.7965H250.348V95.5472H254.598V78.7965ZM244.314 78.7965H240.063V95.5472H244.314V78.7965ZM233.889 95.2161C234.921 94.7977 235.848 94.2225 236.67 93.5079L233.819 90.6667C233.382 91.1024 232.857 91.4511 232.262 91.6951C231.668 91.9391 230.986 92.0611 230.181 92.0611C229.499 92.0611 228.869 91.9391 228.309 91.7125C227.732 91.4685 227.26 91.1373 226.858 90.719C226.455 90.3006 226.141 89.7777 225.913 89.1851C225.686 88.5924 225.563 87.9127 225.563 87.1457C225.563 86.3788 225.686 85.7513 225.913 85.1586C226.141 84.566 226.455 84.0431 226.858 83.6247C227.26 83.2064 227.75 82.8752 228.327 82.6486C228.904 82.422 229.516 82.3 230.181 82.3C230.951 82.3 231.633 82.422 232.227 82.6835C232.805 82.9275 233.312 83.2761 233.714 83.7293L236.565 80.8707C235.761 80.1386 234.834 79.5808 233.767 79.1625C232.7 78.7442 231.51 78.535 230.181 78.535C228.852 78.535 227.715 78.7616 226.63 79.1974C225.546 79.6331 224.601 80.2432 223.779 81.0101C222.957 81.7771 222.345 82.6835 221.89 83.7467C221.453 84.7926 221.226 85.9256 221.226 87.1631C221.226 88.4007 221.453 89.5511 221.908 90.6144C222.363 91.6777 222.992 92.584 223.797 93.3684C224.619 94.1528 225.563 94.7629 226.648 95.1986C227.732 95.6344 228.922 95.861 230.198 95.861C231.598 95.861 232.805 95.6518 233.837 95.2335M216.381 94.4665C217.57 93.5427 218.165 92.2529 218.165 90.597C218.165 89.7429 218.025 89.0282 217.745 88.4181C217.465 87.8255 217.08 87.32 216.626 86.9365C216.153 86.5356 215.646 86.2219 215.104 85.9604C214.544 85.7164 214.002 85.4898 213.425 85.2981C212.865 85.1063 212.358 84.9146 211.885 84.7229C211.413 84.5311 211.046 84.322 210.766 84.0954C210.486 83.8688 210.346 83.5724 210.346 83.189C210.346 82.8055 210.504 82.5266 210.836 82.3174C211.168 82.1083 211.623 82.0037 212.218 82.0037C212.847 82.0037 213.425 82.1257 213.932 82.3872C214.439 82.6312 214.964 83.0321 215.454 83.5376L218.165 80.8358C217.518 80.1038 216.678 79.546 215.646 79.1276C214.614 78.7093 213.477 78.5176 212.27 78.5176C211.063 78.5176 209.979 78.7267 209.069 79.1276C208.16 79.5286 207.443 80.1212 206.918 80.8881C206.411 81.6551 206.148 82.5789 206.148 83.6247C206.148 84.4788 206.288 85.1761 206.568 85.7338C206.848 86.2916 207.233 86.7622 207.688 87.1457C208.16 87.5292 208.667 87.8429 209.209 88.1044C209.769 88.3484 210.329 88.575 210.889 88.7668C211.466 88.9585 211.973 89.1502 212.428 89.342C212.882 89.5337 213.267 89.7603 213.547 90.0043C213.844 90.2483 213.984 90.5795 213.984 90.9979C213.984 91.4162 213.792 91.7648 213.407 92.0088C213.022 92.2529 212.463 92.3749 211.763 92.3749C210.923 92.3749 210.171 92.218 209.507 91.8868C208.842 91.5556 208.23 91.085 207.653 90.4924L204.942 93.1941C205.799 94.1005 206.743 94.7803 207.758 95.2161C208.79 95.6518 209.996 95.861 211.413 95.861C213.53 95.861 215.191 95.3904 216.363 94.4665M199.467 89.2897H190.179V92.6538H199.467V89.2897ZM190.582 95.5821L195.514 81.4982H193.992L198.855 95.5821H203.315L196.843 78.8313H192.733L186.191 95.5821H190.582ZM169.558 95.5821V85.8384L168.91 85.9953L172.706 91.7822H175.504L179.317 85.9953L178.653 85.8384V95.5821H182.868V78.8313H179.807L173.406 88.5402H174.805L168.386 78.8313H165.325V95.5821H169.54H169.558Z" fill="#169DD9"/>
<path d="M343.382 48.5719L341.528 46.3233L340.934 46.4802L342.63 48.5719H343.382ZM340.566 44.0748H339.954V48.5893H340.566V44.0748ZM341.581 46.5499C342.018 46.5499 342.368 46.4453 342.613 46.2187C342.858 45.9921 342.998 45.6958 342.998 45.3124C342.998 44.9637 342.875 44.6674 342.613 44.4234C342.368 44.1968 342.018 44.0748 341.581 44.0748H340.269V44.6326H341.581C341.843 44.6326 342.036 44.7023 342.176 44.8417C342.298 44.9812 342.368 45.138 342.368 45.3298C342.368 45.5215 342.298 45.6958 342.176 45.8178C342.036 45.9399 341.843 46.0096 341.598 46.0096H340.287V46.5674H341.598L341.581 46.5499ZM339.447 49.6351C338.887 49.304 338.45 48.8508 338.135 48.2755C337.82 47.7003 337.663 47.0728 337.663 46.3756C337.663 45.6784 337.82 45.0509 338.135 44.4757C338.45 43.9179 338.87 43.4647 339.429 43.1335C339.989 42.8024 340.619 42.6455 341.353 42.6455C342.088 42.6455 342.735 42.8024 343.277 43.1335C343.837 43.4647 344.274 43.9179 344.589 44.4757C344.904 45.0335 345.062 45.6784 345.062 46.3756C345.062 47.0728 344.904 47.7178 344.589 48.2755C344.274 48.8508 343.837 49.304 343.277 49.6351C342.718 49.9663 342.071 50.1406 341.319 50.1406C340.619 50.1406 339.989 49.9663 339.429 49.6351M343.557 50.0883C344.187 49.7049 344.694 49.1994 345.044 48.5544C345.411 47.9095 345.586 47.1774 345.586 46.3756C345.586 45.5738 345.411 44.8592 345.044 44.2142C344.694 43.5693 344.187 43.0638 343.54 42.6803C342.893 42.2969 342.211 42.1226 341.371 42.1226C340.531 42.1226 339.797 42.3143 339.167 42.6803C338.537 43.0464 338.048 43.5693 337.68 44.1968C337.313 44.8243 337.138 45.5389 337.138 46.3408C337.138 47.1426 337.313 47.8746 337.68 48.5196C338.03 49.1645 338.537 49.6874 339.185 50.0709C339.832 50.4544 340.566 50.6461 341.388 50.6461C342.211 50.6461 342.963 50.4544 343.592 50.0883" fill="#169DD9"/>
<path d="M451.546 56.7468C450.759 57.2175 450.234 57.6184 449.955 57.9321C449.482 58.455 449.255 59.1 449.255 59.8669C449.255 60.5816 449.5 61.2265 449.972 61.8017C450.444 62.3769 451.214 62.6558 452.281 62.6558C452.998 62.6558 453.628 62.4815 454.17 62.1503C454.485 61.9586 454.834 61.6623 455.202 61.2439L456.164 62.4118H457.773L455.971 60.2155C455.971 60.3375 456.094 60.0935 456.321 59.5009C456.549 58.9082 456.706 58.2807 456.793 57.6358H455.604C455.552 57.967 455.499 58.211 455.464 58.4027C455.412 58.5771 455.324 58.8559 455.202 59.222L453.348 57.0083C453.907 56.6423 454.31 56.3111 454.555 56.0148C454.957 55.5267 455.167 54.9515 455.167 54.3066C455.167 53.7488 454.974 53.2607 454.572 52.8598C454.17 52.4589 453.628 52.2498 452.91 52.2498C452.176 52.2498 451.581 52.4589 451.126 52.8947C450.689 53.3305 450.462 53.8708 450.462 54.5332C450.462 54.8469 450.532 55.1781 450.689 55.5093C450.829 55.8405 451.126 56.2588 451.546 56.7468ZM452.368 61.5402C451.913 61.5402 451.494 61.4008 451.109 61.1045C450.707 60.8082 450.514 60.3898 450.514 59.8669C450.514 59.3614 450.672 58.9431 450.969 58.5945C451.161 58.3679 451.599 58.0367 452.246 57.6009L454.537 60.4073C454.345 60.7036 454.047 60.965 453.68 61.1916C453.313 61.4182 452.875 61.5402 452.351 61.5402M452.683 56.1716C452.316 55.7533 452.053 55.4221 451.913 55.1781C451.756 54.9166 451.686 54.6552 451.686 54.3763C451.686 54.1671 451.739 53.9754 451.844 53.8011C452.036 53.4525 452.403 53.2956 452.91 53.2956C453.243 53.2956 453.505 53.4002 453.715 53.6268C453.907 53.8359 454.012 54.0974 454.012 54.3937C454.012 54.7772 453.872 55.1258 453.61 55.4395C453.453 55.6313 453.138 55.8927 452.718 56.1891" fill="#169DD9"/>
</g>
<defs>
<clipPath id="clip0_865_9">
<rect width="107.293" height="48.9816" fill="white" transform="translate(15.1611 44.5093)"/>
</clipPath>
<clipPath id="clip1_865_9">
<rect width="294.582" height="53.7559" fill="white" transform="translate(163.418 42.1226)"/>
</clipPath>
</defs>
</svg>
