<svg xmlns="http://www.w3.org/2000/svg" xmlns:xlink="http://www.w3.org/1999/xlink" id="enWKIksVPNo1" class="absolute left-[calc(25%-20px)] top-[180px] aspect-[394/217] w-4/5 scale-90 overflow-visible object-contain xl:static xl:w-auto" viewBox="0 0 394 217" shape-rendering="geometricPrecision" text-rendering="geometricPrecision"><style>
#enWKIksVPNo5_tr {animation: enWKIksVPNo5_tr__tr 8s linear infinite normal forwards}@keyframes enWKIksVPNo5_tr__tr { 0% {transform: translate(237.723839px,159.27px) rotate(0deg)} 100% {transform: translate(237.723839px,159.27px) rotate(-180deg)}} #enWKIksVPNo75_tr {animation: enWKIksVPNo75_tr__tr 8s linear infinite normal forwards}@keyframes enWKIksVPNo75_tr__tr { 0% {transform: translate(94.884972px,94.796013px) rotate(0deg)} 100% {transform: translate(94.884972px,94.796013px) rotate(180deg)}}
</style><g clip-path="url(#enWKIksVPNo83)"><g opacity="0.7"><path d="M204.296,171.104c3.174,8.932,9.641,16.091,18.186,20.154c4.81,2.289,9.943,3.45,15.226,3.45c13.634,0,26.235-7.943,32.089-20.239c4.079-8.556,4.574-18.187,1.399-27.108-3.174-8.921-9.642-16.08-18.207-20.153-4.821-2.29-9.943-3.451-15.227-3.451-13.634,0-26.235,7.944-32.089,20.24-4.068,8.545-4.563,18.165-1.377,27.097v.01Zm1.861-26.871c5.768-12.103,18.175-19.927,31.605-19.927c5.208,0,10.255,1.139,15.001,3.396c8.436,4.009,14.796,11.06,17.927,19.852c3.121,8.793,2.637,18.273-1.377,26.7-5.768,12.102-18.164,19.927-31.605,19.927-5.208,0-10.255-1.139-15-3.396-8.415-3.999-14.786-11.05-17.907-19.853-3.131-8.803-2.647-18.283,1.356-26.688v-.011Z" fill="#009ee0"></path><g id="enWKIksVPNo5_tr" transform="translate(237.723839,159.27) rotate(720)"><path d="M293.02,164.032c-.14-.054-3.358-1.29-6.575-2.29-1.206-.387-2.422-.731-3.541-1.042l-1.108-.312c-.043-3.601-.291-6.546-.775-9.233.947-.419,2.637-1.193,4.423-2.085c1.636-.806,3.217-1.623,4.347-2.257.893-.516,1.571-.903,1.754-1.011.764-.247,1.421-.763,1.787-1.429.344-.623.419-1.322.215-1.978c0,0-.409-1.311-.839-2.719-.506-1.215-1.012-2.472-1.012-2.472-.377-.978-1.399-1.634-2.561-1.634-.398,0-.786.075-1.098.215l-.193.032c-.366.054-1.033.161-1.884.312-1.463.258-3.217.602-4.799.956-1.797.409-3.626.893-4.724,1.194-.161-.312-.323-.613-.473-.914-1.216-2.3-2.863-4.643-4.757-6.782.678-.946,1.7-2.397,2.744-3.945c1.754-2.623,3.358-5.406,3.627-5.879.538-.57.85-1.344.85-2.107c0-.72-.269-1.397-.732-1.827c0-.011-.28-.301-.721-.677l-.732-.613c-.226-.183-.462-.387-.71-.602l-2.077-1.731c-.419-.354-.957-.537-1.56-.537-.915,0-1.84.451-2.378,1.139-.893.731-3.196,2.655-5.273,4.59-1.367,1.247-2.615,2.472-3.465,3.332-.366-.226-.7-.419-1.033-.57l-.818-.344c-3.433-1.44-5.649-2.407-6.596-2.88.043-.559.096-1.129.15-1.688v-.075c.119-1.139.215-2.171.28-3.224.194-3.247.215-6.622.204-6.933.194-.806.065-1.666-.355-2.343-.376-.613-.957-1.021-1.614-1.14l-2.712-.537c-.43-.075-.839-.151-1.226-.226l-.581-.107c-.549-.108-.904-.14-.969-.14l-.269-.022c-1.345,0-2.529,1.108-2.733,2.516-.054.139-1.313,3.385-2.281,6.588-.517,1.602-.99,3.257-1.346,4.654h-.516c-.172,0-.334,0-.57,0-2.927.054-5.607.312-8.189.764-.754-1.709-1.432-3.15-2.067-4.407-.914-1.871-1.807-3.504-2.259-4.31-.517-.914-.904-1.58-1.012-1.763-.377-1.247-1.485-2.118-2.69-2.118-.258,0-.517.043-.796.129-.194.065-1.367.441-2.615.807-1.281.515-2.54,1.042-2.54,1.042-.635.258-1.13.763-1.399,1.419-.29.699-.28,1.526,0,2.225.043.269.162,1.032.345,2.074.258,1.484.602,3.225.968,4.773.086.387.248.859.42,1.397.323.989,1.011,3.031.484,3.482-1.076.946-2.303,1.688-3.594,2.473l.14.225-.216-.183c-1.269.764-2.582,1.559-3.755,2.559l-.775-.549c-.85-.601-2.012-1.418-3.164-2.171-2.389-1.59-4.95-3.085-5.886-3.622-.559-.527-1.345-.828-2.141-.828-.721,0-1.367.237-1.808.667-.011.011-.312.279-.7.741-.322.377-.785.925-1.205,1.43l-1.743,2.096c-.43.494-.624,1.15-.549,1.849.086.806.517,1.569,1.141,2.074.387.473,2.453,2.967,4.595,5.278c1.27,1.397,2.539,2.687,3.432,3.557-1.119,2.236-3.088,6.267-3.938,8.33-.893-.096-2.798-.301-4.939-.419-2.873-.183-5.854-.226-6.941-.226-.215-.053-.441-.075-.678-.075-1.388,0-2.604.892-2.809,2.075c0,0-.269,1.343-.516,2.633-.118.537-.215,1.064-.301,1.516l-.065.354c-.108.559-.129.935-.129.946-.065.699.151,1.397.613,1.956.474.581,1.205.968,1.916,1.054.57.215,3.551,1.354,6.575,2.289c1.291.409,2.615.785,3.68,1.086l.925.247c-.118,2.719.086,5.654.592,8.287.065.312.14.634.205.967-1.206.538-2.82,1.258-4.402,2.075-1.291.623-2.744,1.386-4.326,2.268l-1.754.989c-.753.236-1.398.752-1.775,1.408-.355.623-.441,1.343-.248,2.01c0,0,.388,1.322.84,2.697.441,1.086.871,2.193.968,2.462l.033.075c.419.967,1.431,1.602,2.571,1.602.388,0,.775-.076,1.076-.205.269-.043,1.044-.172,2.067-.365c1.323-.204,3.066-.548,4.788-.946c1.991-.462,3.756-.914,4.735-1.182c1.302,2.311,2.809,4.568,4.616,6.889.216.237.42.495.646.785-.818,1.086-1.819,2.515-2.744,3.945-1.905,2.816-3.626,5.836-3.669,5.911-1.077,1.172-1.12,2.913-.097,3.945.01.011.312.322.699.613.237.225.527.473.872.752l2.679,2.246c.409.355.947.538,1.539.538.936,0,1.862-.462,2.378-1.15.291-.237,2.906-2.376,5.305-4.579c1.281-1.182,2.497-2.386,3.541-3.429c1.13.57,6.037,3.031,8.339,3.999-.118,1.053-.301,2.912-.409,4.869-.215,3.256-.236,6.621-.236,6.943-.183.806-.043,1.688.376,2.354.388.602.958,1.01,1.625,1.129l3.325.645c.463.086.894.172,1.141.204.474.118.861.15,1.001.161h.237c1.388,0,2.582-1.096,2.754-2.515.312-.817,1.41-3.719,2.314-6.61.452-1.494.936-3.182,1.334-4.622c2.723,0,5.531-.022,8.275-.559.313-.065.635-.14.98-.204.742,1.633,1.431,3.117,2.066,4.417.85,1.698,1.668,3.214,2.281,4.267.506.946.904,1.634,1.022,1.806.388,1.236,1.507,2.096,2.701,2.096.248,0,.485-.032.711-.107l2.69-.839l2.55-1.021c.635-.269,1.13-.795,1.399-1.451.28-.709.269-1.526-.021-2.279-.054-.29-.183-1.01-.334-1.967-.269-1.537-.624-3.278-.979-4.761-.312-1.473-.7-3.053-1.184-4.837c1.044-.666,5.531-3.568,7.63-5.202l1.033.741c.86.602,1.947,1.355,3.002,2.053c1.689,1.118,3.798,2.419,5.886,3.623.56.526,1.334.827,2.12.827.732,0,1.388-.247,1.84-.698.011,0,.301-.269.678-.721l.484-.58c.226-.269.463-.559.721-.86l1.743-2.074c.442-.516.625-1.193.539-1.903-.097-.806-.538-1.569-1.163-2.042-.559-.688-2.539-3.085-4.595-5.267-.333-.365-.764-.763-1.194-1.15-.829-.752-2.227-2.01-2.045-2.644.14-.473.517-1.075.904-1.709.323-.516.657-1.053.861-1.548.076-.161.484-1.128,1.098-2.579l.323-.763c.236-.559.462-1.097.635-1.494c1.205.129,2.97.301,4.874.408c3.142.204,6.403.237,6.963.226.215.043.452.064.667.064c1.42,0,2.604-.86,2.819-2.053l.538-2.708c.065-.366.14-.731.205-1.075l.043-.237c.032-.182.075-.354.096-.483.119-.591.14-.978.14-.989.13-1.473-1.022-2.784-2.55-2.977l.022-.011Zm-34.963-41.199l.764.323c.431.204.915.505,1.442.892l.786.58.678-.709c1.366-1.408,2.765-2.763,4.035-3.924c2.443-2.278,5.144-4.471,5.284-4.589l.172-.194c.204-.29.635-.472.796-.344l2.066,1.731c.248.204.485.408.721.602l.732.613c.312.258.495.462.56.526.086.075.097.194.097.28c0,.204-.097.43-.302.623l-.172.226c0,0-1.743,3.052-3.637,5.89-.872,1.29-1.819,2.655-2.809,4.031-.14.204-.28.387-.398.559l-.333.935.538.645c1.926,2.074,3.669,4.492,4.885,6.814.258.527.57,1.107.915,1.741l.419.753l1.561-.409c1.269-.333,3.023-.795,4.767-1.193c1.592-.355,3.303-.688,4.692-.935c1-.172,1.743-.29,2.023-.333.1-.014.15-.022.15-.022l.258-.075c.14-.064.302-.097.431-.097.301,0,.366.172.387.237c0,0,.517,1.29.99,2.407.388,1.312.807,2.634.807,2.634.022.075,0,.15-.043.247-.097.172-.301.323-.559.398l-.215.096c0,0-.786.441-1.905,1.086-1.087.602-2.626,1.408-4.24,2.204-2.227,1.117-4.337,2.052-5.133,2.396l-.839.366.183.892c.613,2.988.893,6.213.904,10.437l-.097.967l1.151.28c.215.053.441.107.603.139l1.076.301c1.044.29,2.27.645,3.476,1.032c2.561.795,5.143,1.752,6.456,2.246.076.033.108.043.129.043l.269.065c.463.043.743.355.721.623c0,.043-.021.312-.107.731l-.14.699c-.075.355-.151.742-.215,1.096l-.528,2.698c-.01.086-.333.323-.914.194l-.237-.022c0,0-3.573-.021-6.984-.236-2.507-.14-4.724-.387-5.563-.484h-.14c-.51-.007-1.281,1.225-2.314,3.697l-.226.549c-.387.935-.764,1.816-.839,1.988-.162.387-.441.838-.743,1.322-.419.677-.904,1.451-1.13,2.236-.548,1.977,1.249,3.6,2.701,4.912.366.333.754.677,1.044.999c2.357,2.516,4.541,5.224,4.595,5.278l.194.183c.215.15.366.387.398.623c0,.064,0,.14-.032.183l-1.733,2.063c-.258.301-.516.613-.742.882l-.463.559c-.269.311-.473.505-.516.548-.291.279-.528.226-.947-.194l-.216-.161c0,0-3.077-1.752-5.907-3.633-1.001-.655-1.97-1.333-2.96-2.02l-.871-.602-.226-.183c-.183-.151-.355-.29-.517-.409l-4.573-3.364c3.745-3.321,6.715-7.266,8.856-11.748c4.261-8.953,4.778-19.035,1.453-28.397s-10.094-16.864-19.058-21.121c-5.047-2.397-10.416-3.611-15.958-3.611-14.291,0-27.484,8.319-33.617,21.206-.635,1.344-1.195,2.698-1.657,4.085l-4.079-2.042c1.087-2.387,3.745-8.083,4.111-8.61l.549-.785-.689-.666c-.635-.613-2.281-2.214-3.917-4.031-2.109-2.278-4.165-4.761-4.595-5.277l-.172-.161c-.215-.162-.377-.42-.398-.645-.011-.119.021-.151.032-.172l1.765-2.118c.409-.505.861-1.032,1.183-1.408.269-.322.463-.505.506-.548.312-.312.678-.064.947.204l.226.172c0,0,3.067,1.752,5.908,3.633c1.044.688,2.066,1.398,2.959,2.032l1.442,1.042l1.087.538.656-.613c1.173-1.107,2.518-1.913,3.971-2.795c1.335-.806,2.712-1.644,3.939-2.719c1.657-1.419.796-3.998.15-5.944-.14-.419-.269-.817-.344-1.118-.344-1.515-.689-3.213-.936-4.654-.194-1.118-.323-1.924-.355-2.096l-.086-.311c-.097-.226-.108-.473-.033-.656.043-.097.097-.161.172-.193l.054-.022c.237-.097,1.335-.559,2.378-.978c1.281-.376,2.594-.795,2.594-.795.247-.076.549.193.656.601l.129.312h.022c.118.215.506.892,1.033,1.817.344.623,1.259,2.268,2.206,4.213.958,1.881,1.818,3.826,2.378,5.116l.355.828.883-.172c2.711-.537,5.531-.817,8.608-.881.194,0,.398.01.603.01h1.141l1.076.119.473-1.795c.355-1.387.818-2.999,1.324-4.558.893-2.945,2.034-5.954,2.27-6.578l.054-.247c.043-.398.312-.699.56-.709h.075c.075.021.301.032.732.118l.559.107c.398.076.84.162,1.249.237l2.701.526c0,0,.086.054.129.119.107.182.14.451.064.709l-.032.28c0,0,0,3.6-.215,6.965-.076,1.085-.183,2.181-.269,3.149l-.033.355c-.064.698-.129,1.408-.193,2.128-.065.989-.065,1.032,8.006,4.428l.021-.043Zm-55.095,24.775c.462-1.386,1.022-2.751,1.657-4.095c6.047-12.694,19.057-20.895,33.133-20.895c5.466,0,10.76,1.204,15.732,3.558c8.824,4.192,15.496,11.587,18.778,20.82c3.282,9.232,2.776,19.164-1.431,27.988-2.153,4.515-5.166,8.481-8.975,11.802l-.215.183c-6.694,5.75-15.195,8.91-23.954,8.91-5.467,0-10.75-1.203-15.732-3.557-8.824-4.192-15.496-11.587-18.778-20.82-2.766-7.793-2.841-16.08-.269-23.776l.344.043-.312-.15.022-.011Zm31.766,60.105c-.893,2.881-1.991,5.762-2.314,6.643-.161,1.204-1.119,2.107-2.238,2.117h-.205c-.096-.01-.462-.053-.936-.161-.269-.032-.689-.118-1.14-.193l-3.326-.645c-.516-.097-.968-.409-1.269-.892-.345-.549-.463-1.269-.302-2c0-.376.022-3.729.237-6.965.118-2.074.323-4.052.431-5.041l.021-.204-.183-.075c-1.905-.785-6.338-2.977-8.662-4.149l-.173-.086-.14.14c-1.065,1.064-2.335,2.321-3.658,3.547-2.389,2.192-4.993,4.321-5.327,4.6-.463.602-1.227.978-1.991.978-.473,0-.882-.139-1.194-.408l-2.701-2.268c-.301-.258-.592-.505-.85-.742-.377-.279-.646-.569-.657-.569-.817-.839-.774-2.247.14-3.257.076-.129,1.797-3.128,3.681-5.933.936-1.43,1.936-2.859,2.754-3.945l.237-.322-.258-.312c-.226-.28-.441-.559-.657-.796-1.818-2.343-3.346-4.632-4.659-6.986l-.108-.183-.204.054c-.915.247-2.776.742-4.918,1.236-1.711.387-3.443.731-4.756.935-1.023.194-1.797.323-2.12.376-.301.119-.614.183-.936.183-.937,0-1.754-.494-2.099-1.322-.107-.269-.538-1.387-.968-2.451-.441-1.354-.829-2.665-.829-2.665-.15-.527-.086-1.097.194-1.602.301-.537.839-.967,1.517-1.182l1.808-1.01c1.571-.882,3.013-1.634,4.304-2.258c1.625-.838,3.282-1.569,4.488-2.117l-.108-.247.194.204.204-.086-.043-.215c-.086-.408-.172-.806-.247-1.172-.506-2.654-.711-5.632-.571-8.373v-.215l-1.323-.365c-1.055-.301-2.378-.666-3.659-1.075-3.013-.935-5.983-2.064-6.607-2.3-.646-.086-1.248-.408-1.636-.881-.376-.452-.549-1-.495-1.57c0,0,.022-.365.119-.881l.064-.365c.086-.441.183-.968.301-1.505.248-1.301.517-2.644.517-2.644.161-.914,1.173-1.634,2.281-1.634.183,0,.377.021.614.064c1.14,0,4.1.054,6.973.237c2.313.129,4.347.355,5.111.441l.205.021.075-.193c.818-2.021,2.948-6.396,4.089-8.653l.086-.172-.14-.14c-.882-.87-2.227-2.203-3.551-3.676-2.13-2.3-4.186-4.783-4.616-5.288-.549-.451-.915-1.107-.979-1.752-.054-.537.086-1.053.43-1.44l1.743-2.096c.42-.516.872-1.053,1.205-1.43.356-.43.635-.677.657-.687.344-.334.861-.527,1.431-.527.667,0,1.313.247,1.819.72.979.57,3.529,2.064,5.907,3.644c1.141.752,2.303,1.569,3.153,2.16l1.119.796.162-.14c1.173-1.032,2.529-1.849,3.842-2.644l.064-.043c1.313-.796,2.561-1.548,3.67-2.526.731-.624.236-2.343-.334-4.063-.172-.516-.323-.978-.409-1.344-.355-1.547-.699-3.267-.958-4.74-.183-1.032-.301-1.805-.366-2.117-.236-.613-.247-1.301,0-1.881.216-.516.603-.914,1.109-1.118c0,0,1.259-.527,2.518-1.032c1.227-.365,2.41-.741,2.626-.817c1.14-.354,2.388.398,2.797,1.709.14.237.528.903,1.033,1.817.452.806,1.335,2.429,2.249,4.288.657,1.301,1.356,2.795,2.153,4.579l.086.194.204-.033c2.615-.472,5.338-.73,8.297-.795.226,0,.398,0,.581,0h.925l-.086,1.15h-.839c-.194,0-.387,0-.592,0-3.131.065-5.983.355-8.727.892l-.452.086-.183-.43c-.57-1.3-1.431-3.246-2.389-5.137-.958-1.957-1.872-3.612-2.227-4.235-.678-1.215-.937-1.666-1.066-1.849l-.075-.183c-.183-.688-.775-1.118-1.334-.946c0,0-1.302.42-2.604.807-1.755.72-2.282.935-2.443,1.01-.215.075-.377.247-.474.484-.129.311-.118.72.033,1.042l.064.215c.032.183.151.978.355,2.107.248,1.451.592,3.16.947,4.686.076.333.215.742.377,1.236.581,1.741,1.377,4.128,0,5.31-1.195,1.053-2.55,1.87-3.885,2.676-1.453.871-2.819,1.709-4.035,2.849l-.388.365-.721-.344-1.409-1.021c-.904-.634-1.916-1.344-2.97-2.031-2.895-1.914-5.908-3.633-5.908-3.633l-.161-.119c-.581-.591-1.206-.655-1.668-.204-.054.054-.28.258-.549.591-.323.377-.775.903-1.195,1.419l-1.754,2.107c-.129.15-.183.344-.161.569.043.377.269.764.581,1l.14.14c.398.473,2.453,2.966,4.573,5.256c1.658,1.816,3.315,3.439,3.95,4.052l.355.344-.28.408c-.431.624-3.487,7.213-4.261,8.922l-.108.236l2.529,1.268-3.358-.419c-.645-.075-2.98-.355-5.628-.505-3.454-.226-6.973-.237-6.973-.237l-.183-.021c-.559-.161-1.398.075-1.506.634c0,.011-.269,1.354-.517,2.666-.118.537-.215,1.042-.29,1.483l-.065.365c-.086.452-.097.753-.097.753-.021.279.054.537.226.752.226.269.581.441.926.473l.226.054c.57.215,3.572,1.365,6.553,2.289c1.216.387,2.411.731,3.627,1.075l1.076.29c.312.065.538.119.742.194l.42.15-.032.441c-.216,2.838-.033,5.955.505,8.76.119.559.259,1.204.388,1.849l.086.451-1.152.516c-1.194.527-2.819,1.258-4.433,2.085-1.248.602-2.68,1.344-4.251,2.225l-2.023,1.118c-.376.108-.688.344-.861.645-.129.226-.161.473-.096.709c0,0,.387,1.301.807,2.591.484,1.193.979,2.472.979,2.472.151.344.484.548.936.548.215,0,.441-.043.603-.129l.183-.054c0,0,.871-.129,2.141-.376c1.313-.204,3.024-.548,4.692-.924c2.496-.57,4.681-1.161,5.509-1.398l.442-.129.226.409c1.356,2.504,2.937,4.912,4.853,7.395.204.226.43.505.688.827l.399.484.409.376-.259.462c-.161.215-.323.441-.495.699-.785,1.043-1.786,2.472-2.722,3.902-1.776,2.622-3.379,5.406-3.68,5.922l-.119.151c-.495.505-.581,1.257-.161,1.666.172.172.376.344.559.494.291.269.571.505.872.763l2.679,2.247c.388.333,1.206.064,1.528-.409l.162-.172c.678-.559,3.067-2.526,5.284-4.557c1.538-1.43,3.002-2.891,4.003-3.891l.355-.355.441.248c.635.44,7.812,3.826,9.33,4.46l-.237.838.893.151c-.108.903-.344,3.053-.473,5.363-.226,3.397-.237,6.965-.237,6.965l-.022.183c-.107.398-.054.817.14,1.129.162.258.366.344.506.365l3.443.667c.388.075.743.139,1.023.182.236.054.43.086.57.108l.075.645.538-.033v-.623c.442-.129.775-.58.818-1.086l.065-.236c.312-.817,1.409-3.708,2.292-6.567.452-1.494.936-3.16,1.313-4.558l.043-.139c.075-.258.129-.484.183-.688l.107-.452h.248l.398,2.107c-.366,1.311-.786,2.773-1.184,4.084l-.021-.086Zm.118-6.739l-.215.881c-.054.205-.108.42-.172.667l-.043.14c-.377,1.397-.861,3.052-1.313,4.546-.883,2.849-1.969,5.718-2.281,6.535l-.087.355c-.032.355-.279.666-.548.677h-.108c0,0-.247-.021-.721-.129-.301-.043-.646-.107-1.022-.183l-3.444-.666c0,0-.086-.032-.15-.129-.119-.183-.151-.462-.076-.742l.033-.258c0,0,0-3.59.236-6.965.14-2.558.42-4.922.495-5.589l.033-.258-.807-.129.204-.741-.248-.086c-.656-.215-8.759-4.02-9.458-4.504l-.818-.451-.678.688c-.969.967-2.421,2.418-3.949,3.847-2.206,2.021-4.585,3.988-5.262,4.536l-.237.258c-.162.226-.441.366-.635.366-.043,0-.097,0-.129-.033l-2.68-2.246c-.29-.247-.57-.484-.871-.763-.183-.14-.377-.301-.528-.462-.193-.204-.118-.613.194-.935l.161-.226c.302-.527,1.905-3.3,3.67-5.912.936-1.429,1.926-2.837,2.712-3.88.172-.247.344-.484.516-.72l.484-.871-.688-.623-.388-.484c-.247-.311-.473-.602-.667-.817-1.883-2.44-3.454-4.826-4.799-7.298l-.431-.784-.86.236c-.818.226-3.003.817-5.489,1.387-1.657.376-3.357.72-4.67.924-1.259.236-2.109.365-2.163.376l-.247.075c-.129.054-.28.086-.42.086-.129,0-.355-.032-.43-.215c0,0-.495-1.279-.969-2.461-.409-1.279-.796-2.558-.796-2.558-.022-.086,0-.194.043-.29.097-.183.29-.323.592-.409l2.087-1.139c1.561-.871,2.981-1.623,4.229-2.214c1.604-.828,3.229-1.548,4.455-2.096l1.496-.667-.172-.87c-.129-.645-.258-1.29-.387-1.849-.528-2.762-.7-5.815-.495-8.609l.064-.85-.807-.279c-.237-.086-.495-.14-.796-.204l-1.065-.29c-1.206-.344-2.4-.678-3.605-1.065-2.96-.924-5.951-2.053-6.586-2.3l-.269-.064c-.248-.022-.463-.129-.603-.29-.086-.108-.118-.215-.107-.366c0,0,.01-.279.097-.688l.075-.387c.075-.43.172-.924.29-1.462.248-1.3.517-2.622.517-2.665.011-.086.258-.247.592-.247.086,0,.161,0,.269.043l.247.032c0,0,3.519.011,6.973.236c2.626.151,4.94.42,5.596.506l5.574.698c-2.572,7.782-2.486,16.155.312,24.023c3.325,9.362,10.094,16.864,19.058,21.121c5.047,2.396,10.416,3.611,15.958,3.611c8.824,0,17.401-3.171,24.18-8.932l2.895,3.547c-2.152,1.505-7.425,5.063-7.791,5.278l-.904.387.269.945c.581,2.053,1.022,3.859,1.377,5.514.355,1.462.7,3.16.958,4.633.204,1.3.377,2.171.377,2.193l.064.215c.097.225.108.462.033.655-.011.043-.076.172-.173.215l-2.442.978-2.712.817c-.162-.021-.431-.215-.538-.613l-.108-.236c-.032-.064-.463-.795-1.065-1.913-.614-1.054-1.41-2.537-2.228-4.171-.936-1.934-1.818-3.869-2.389-5.148l-.355-.795-.861.15c-.677.118-1.334.258-1.893.376-2.529.495-5.241.505-7.867.505h-.559l-1.119-.032h-.022Zm60.057-33.084c-.022.14-.054.301-.097.484l-.043.237c-.065.344-.14.709-.205,1.074l-.538,2.709c-.172.924-1.151,1.612-2.292,1.612-.193,0-.376-.021-.613-.064-.613,0-3.853-.032-6.984-.237-2.001-.107-3.852-.29-5.047-.419l-.193-.021-.076.182c-.183.42-.441,1.032-.71,1.677l-.323.763c-.473,1.129-1.011,2.397-1.087,2.569-.193.462-.516.978-.85,1.526-.387.624-.785,1.258-.947,1.806-.269.957,1.109,2.193,2.206,3.182.42.376.84.763,1.162,1.107c2.045,2.171,4.014,4.568,4.617,5.288.549.43.925,1.075,1.001,1.731.064.558-.076,1.085-.42,1.483l-1.743,2.074c-.259.301-.506.591-.721.871l-.485.58c-.355.419-.624.667-.635.677-.355.344-.882.549-1.463.549-.656,0-1.302-.248-1.808-.721-2.13-1.236-4.229-2.525-5.908-3.643-1.054-.688-2.13-1.441-2.991-2.042l-1.13-.807-.129-.247-.258.204c-1.733,1.376-5.79,4.042-7.91,5.407l-.172.107.054.194c.506,1.838.915,3.472,1.237,4.998.356,1.483.711,3.203.98,4.729.15.957.28,1.677.333,1.978l.022.118c.247.613.258,1.29.032,1.87-.215.538-.602.946-1.097,1.161l-2.529,1.011-2.669.827c-.172.054-.366.086-.549.086-.947,0-1.872-.72-2.217-1.773-.139-.237-.527-.914-1.033-1.86-.613-1.053-1.431-2.569-2.27-4.245-.646-1.344-1.367-2.892-2.142-4.601l-.086-.193-.204.043c-.42.075-.829.161-1.195.247-2.701.527-5.498.537-8.21.548h-.162l-.215.065.022-1.226h.355c2.647,0,5.391-.01,7.974-.516.57-.129,1.216-.258,1.883-.376l.441-.086.183.409c.581,1.289,1.463,3.224,2.4,5.159.828,1.644,1.625,3.138,2.238,4.192.603,1.118,1.033,1.859,1.065,1.891l.076.172c.172.645.678.979,1.076.979l2.851-.85l2.475-.988c.291-.129.42-.398.463-.516.129-.323.108-.71-.032-1.032l-.054-.151c0,0-.172-.86-.366-2.16-.258-1.494-.613-3.192-.968-4.665-.356-1.655-.807-3.472-1.389-5.535l-.139-.495.495-.215c.408-.236,6.112-4.084,8.103-5.481l.236-.162-2.529-3.095l3.691,2.719c.151.118.312.247.538.43l1.087.774c.99.688,1.959,1.365,2.97,2.031c2.863,1.903,5.908,3.633,5.908,3.633l.162.119c.591.612,1.194.655,1.678.182.043-.043.258-.247.549-.58l.473-.57c.226-.268.474-.569.732-.881l1.733-2.064c.086-.107.193-.29.15-.602-.043-.376-.279-.752-.591-.967l-.14-.118c0,0-2.26-2.784-4.595-5.278-.302-.333-.7-.688-1.087-1.032-1.334-1.203-3.002-2.708-2.54-4.364.205-.709.646-1.418,1.076-2.106.312-.495.603-.968.775-1.376.086-.172.42-.978.85-1.999l.226-.548c1.421-3.375,1.431-3.375,1.787-3.375h.107c.84.107,3.067.354,5.585.494c3.411.215,6.973.226,6.984.226l.172.021c.603.14,1.431-.075,1.539-.623l.527-2.709c.065-.354.14-.741.215-1.096l.14-.71c.076-.408.108-.687.119-.795.043-.516-.409-1.128-1.162-1.193l-.291-.086c-1.313-.494-3.906-1.462-6.478-2.257-1.216-.387-2.443-.731-3.497-1.032L281.344,162c-.172-.032-.387-.086-.592-.139l-.71-.172.054-.527c-.011-4.289-.291-7.545-.915-10.566l-.097-.462.431-.183c.807-.354,2.927-1.289,5.154-2.407c1.614-.796,3.175-1.602,4.261-2.214c1.098-.635,1.873-1.065,1.873-1.065l.161-.064c.377-.097.7-.344.861-.645.118-.226.151-.451.086-.666c0,0-.409-1.322-.807-2.655-.484-1.14-1.001-2.419-1.001-2.419-.14-.365-.462-.58-.893-.58-.215,0-.441.054-.624.14l-.194.064-.107.011c-.28.043-1.023.161-2.034.333-1.388.237-3.11.581-4.713.935-1.765.398-3.508.86-4.789,1.204l-1.162.301-.215-.398c-.345-.623-.646-1.203-.915-1.719-1.248-2.365-3.013-4.826-4.961-6.922l-.333-.409.183-.537c.129-.161.247-.344.387-.538.99-1.386,1.937-2.751,2.819-4.052c1.894-2.848,3.638-5.901,3.638-5.901l.118-.161c.269-.258.43-.634.43-.978c0-.269-.086-.505-.247-.656-.076-.075-.28-.29-.603-.569l-.742-.613c-.226-.183-.463-.387-.711-.591l-2.066-1.731c-.398-.344-1.205-.096-1.56.409l-.129.139c-.118.097-2.83,2.301-5.284,4.59-1.28,1.161-2.679,2.526-4.057,3.945l-.355.365-.409-.301c-.559-.408-1.076-.731-1.538-.946l-.775-.322c-7.479-3.149-7.716-3.321-7.683-3.891.053-.709.118-1.419.193-2.117l.033-.355c.096-.968.193-2.075.269-3.171.204-3.386.215-6.965.204-6.965l.022-.204c.107-.376.053-.796-.14-1.118-.162-.258-.355-.344-.485-.365l-2.711-.538c-.42-.075-.85-.161-1.249-.236l-.57-.108c-.452-.086-.699-.107-.839-.118-.581,0-1.087.505-1.152,1.15l-.054.204c-.226.57-1.377,3.59-2.27,6.557-.506,1.558-.969,3.192-1.324,4.589l-.344,1.333-.301-.032-.312-2.225c.333-1.247.742-2.644,1.173-3.998.968-3.193,2.216-6.428,2.281-6.621.183-1.204,1.13-2.118,2.195-2.118l.323.022c.097,0,.377.043.828.129l.582.107c.376.075.807.161,1.226.237l2.712.537c.517.097.958.408,1.259.892.344.559.452,1.279.291,1.999c0,.376-.022,3.73-.216,6.955-.075,1.042-.161,2.063-.279,3.203v.075c-.065.623-.129,1.247-.183,1.87v.183l.14.086c.85.44,3.142,1.44,6.79,2.977l.807.344c.355.172.732.387,1.151.656l.183.118.151-.161c.85-.86,2.152-2.161,3.605-3.472c2.077-1.935,4.369-3.837,5.294-4.611.474-.602,1.238-.978,1.991-.978.473,0,.893.139,1.205.419l2.077,1.73c.247.215.495.409.721.602l.732.613c.419.344.667.623.688.645.366.344.581.881.581,1.451c0,.623-.258,1.258-.742,1.784-.301.527-1.905,3.289-3.648,5.901-1.044,1.559-2.077,3.01-2.733,3.945-.033.043-.065.075-.119.161l-.129.172.14.161c1.926,2.15,3.605,4.515,4.821,6.825.172.355.366.731.57,1.107l.076.14h.226c1.14-.311,3.045-.817,4.907-1.247c1.571-.344,3.314-.687,4.767-.945.839-.151,1.506-.248,1.872-.312l.258-.043c.302-.118.624-.183.947-.183.937,0,1.765.516,2.056,1.29c0,0,.505,1.268,1.011,2.461.42,1.387.829,2.698.829,2.698.161.516.097,1.064-.172,1.569-.302.549-.84.979-1.528,1.204-.226.129-.904.516-1.808,1.032-1.119.624-2.691,1.44-4.326,2.247-1.905.956-3.691,1.762-4.595,2.16l-.194.086.043.204c.528,2.795.775,5.74.807,9.556l.054.225l1.496.398c1.065.301,2.27.645,3.476,1.032c3.206.999,6.413,2.235,6.607,2.3c1.302.172,2.249,1.236,2.141,2.418c0,0-.021.366-.129.925l.065.01Z" transform="translate(-237.723839,-159.27)" fill="#009ee0"></path></g><path d="M237.741,153.498c-3.164,0-5.736,2.569-5.736,5.729s2.572,5.729,5.736,5.729s5.735-2.569,5.735-5.729-2.571-5.729-5.735-5.729Zm0,10.921c-2.862,0-5.198-2.333-5.198-5.192s2.336-5.191,5.198-5.191s5.197,2.332,5.197,5.191-2.335,5.192-5.197,5.192Z" fill="#009ee0"></path><path d="M237.741,151.091c-4.498,0-8.157,3.654-8.157,8.147s3.659,8.147,8.157,8.147s8.157-3.654,8.157-8.147-3.659-8.147-8.157-8.147Zm0,15.757c-4.197,0-7.619-3.407-7.619-7.61s3.411-7.61,7.619-7.61c4.207,0,7.618,3.407,7.618,7.61s-3.411,7.61-7.618,7.61Z" fill="#009ee0"></path><path d="M222.686,51.2269c-8.361,0-15.162,6.793-15.162,15.1446s6.801,15.1445,15.162,15.1445s15.162-6.793,15.162-15.1445-6.801-15.1446-15.162-15.1446Zm0,29.7624c-8.071,0-14.624-6.5565-14.624-14.6071s6.564-14.6071,14.624-14.6071s14.624,6.5565,14.624,14.6071-6.564,14.6071-14.624,14.6071Z" fill="#009ee0"></path><path d="M222.686,44.6489c-11.998,0-21.748,9.7488-21.748,21.7226s9.761,21.7226,21.748,21.7226c11.988,0,21.748-9.7489,21.748-21.7226s-9.76-21.7226-21.748-21.7226Zm0,42.9185c-11.697,0-21.209-9.5016-21.209-21.1852c0-11.6835,9.512-21.1851,21.209-21.1851s21.21,9.5016,21.21,21.1851c0,11.6836-9.513,21.1852-21.21,21.1852Z" fill="#009ee0"></path><path d="M250.676,35.3193c-17.143-15.4133-43.647-14.0267-59.089,3.0955l.399.3655c15.237-16.9073,41.397-18.2724,58.324-3.0526s18.293,41.36,3.056,58.2565l.398.3654c15.431-17.1222,14.043-43.5956-3.099-59.0196l.011-.0107Z" fill="#009ee0"></path><path d="M329.79,133.678c1.485.968,3.066,1.827,4.702,2.537l.215-.495c-1.603-.698-3.153-1.537-4.616-2.493l-.291.451h-.01Z" fill="#009ee0"></path><path d="M322.365,126.154l-.42.333c1.087,1.398,2.313,2.72,3.626,3.924l.366-.398c-1.291-1.182-2.486-2.483-3.562-3.859h-.01Z" fill="#009ee0"></path><path d="M339.539,137.945c1.722.43,3.497.721,5.273.871l.043-.537c-1.743-.14-3.487-.43-5.187-.85l-.129.527v-.011Z" fill="#009ee0"></path><path d="M344.672,74.3899l.043.5375c1.732-.1505,3.519-.1505,5.251-.0215l.043-.5375c-1.764-.1397-3.583-.1289-5.337.0215Z" fill="#009ee0"></path><path d="M334.363,77.0234l.216.4944c1.603-.7094,3.271-1.2898,4.96-1.7198l-.129-.5159c-1.722.4407-3.422,1.0319-5.047,1.752v-.0107Z" fill="#009ee0"></path><path d="M316.855,117.147c.581,1.677,1.302,3.321,2.152,4.88l.474-.258c-.84-1.537-1.55-3.149-2.12-4.794l-.506.172Z" fill="#009ee0"></path><path d="M322.29,87.1375l-.42-.3332c-1.087,1.4081-2.066,2.9128-2.916,4.4714l.473.2579c.829-1.537,1.797-3.0203,2.863-4.3961Z" fill="#009ee0"></path><path d="M329.973,80.0329l-.302-.4515c-1.485.9781-2.894,2.0852-4.207,3.289l.366.3977c1.28-1.1823,2.679-2.2786,4.132-3.2352h.011Z" fill="#009ee0"></path><path d="M315.09,106.667c0,1.785.151,3.569.452,5.321l.528-.086c-.291-1.709-.431-3.472-.442-5.224h-.538v-.011Z" fill="#009ee0"></path><path d="M317.318,96.3382l-.506-.1719c-.57,1.6767-1.011,3.418-1.291,5.1807l.527.086c.28-1.7305.711-3.4395,1.27-5.0948Z" fill="#009ee0"></path><path d="M372.92,86.6432l-.42.3332c1.076,1.3758,2.055,2.8483,2.895,4.3746l.473-.258c-.85-1.5585-1.84-3.0525-2.938-4.4498h-.01Z" fill="#009ee0"></path><path d="M378.02,95.9728l-.506.1719c.57,1.6446,1.012,3.3536,1.302,5.0843l.527-.086c-.301-1.7522-.742-3.4935-1.323-5.1702Z" fill="#009ee0"></path><path d="M375.448,121.715l.474.258c.85-1.569,1.571-3.214,2.152-4.89l-.506-.172c-.57,1.644-1.28,3.267-2.109,4.804h-.011Z" fill="#009ee0"></path><path d="M379.268,106.453v.139c0,1.752-.14,3.515-.43,5.235l.527.086c.291-1.752.431-3.537.431-5.321v-.129h-.538l.01-.01Z" fill="#009ee0"></path><path d="M355.293,75.2283l-.129.5267c1.7.4191,3.368.9888,4.972,1.6875l.215-.4945c-1.636-.7094-3.336-1.2898-5.058-1.7197Z" fill="#009ee0"></path><path d="M369.013,129.97l.366.398c1.302-1.204,2.529-2.526,3.616-3.923l-.42-.334c-1.076,1.376-2.271,2.677-3.562,3.859Z" fill="#009ee0"></path><path d="M360.254,135.699l.215.494c1.625-.709,3.207-1.569,4.692-2.547l-.291-.451c-1.463.956-3.013,1.805-4.616,2.504Z" fill="#009ee0"></path><path d="M350.106,138.268l.043.537c1.776-.15,3.552-.44,5.273-.881l-.129-.516c-1.689.43-3.433.72-5.176.86h-.011Z" fill="#009ee0"></path><path d="M365.053,79.4631l-.29.4515c1.463.9566,2.862,2.0314,4.153,3.2137l.366-.3976c-1.313-1.2039-2.733-2.3002-4.229-3.2676Z" fill="#009ee0"></path><path d="M321.892,145.437c1.506.989,3.077,1.903,4.681,2.709l.236-.484c-1.581-.795-3.142-1.698-4.627-2.676l-.301.451h.011Z" fill="#009ee0"></path><path d="M326.734,65.5547l-.248-.4837c-1.603.8062-3.174,1.7198-4.67,2.7194l.301.4514c1.485-.9781,3.035-1.8809,4.617-2.6871Z" fill="#009ee0"></path><path d="M336.752,61.8895l-.129-.5267c-1.754.4192-3.486.9459-5.176,1.5585l.183.5052c1.668-.6127,3.39-1.1286,5.122-1.5478v.0108Z" fill="#009ee0"></path><path d="M313.616,138.494c1.238,1.3,2.561,2.558,3.939,3.708l.344-.409c-1.356-1.139-2.669-2.375-3.885-3.665l-.387.366h-.011Z" fill="#009ee0"></path><path d="M331.533,150.295c1.69.613,3.433,1.14,5.187,1.548l.129-.527c-1.732-.408-3.454-.924-5.122-1.537l-.183.506-.011.01Z" fill="#009ee0"></path><path d="M347.362,60.0945c-1.797,0-3.615.1075-5.402.3224l.065.5375c1.765-.2043,3.551-.3117,5.337-.3225v-.5374Z" fill="#009ee0"></path><path d="M302.855,119.963c.517,1.72,1.141,3.429,1.862,5.073l.495-.214c-.71-1.623-1.323-3.311-1.84-5.02l-.517.15v.011Z" fill="#009ee0"></path><path d="M305.18,88.4489l-.495-.215c-.71,1.6445-1.334,3.3535-1.851,5.084l.516.1505c.506-1.6983,1.12-3.3965,1.83-5.0195Z" fill="#009ee0"></path><path d="M300.972,109.344c.108,1.795.312,3.6.624,5.363l.528-.097c-.312-1.741-.517-3.525-.625-5.309l-.538.032.011.011Z" fill="#009ee0"></path><path d="M342.111,152.241l-.065.537c1.776.204,3.595.312,5.402.312h.183v-.538h-.183c-1.786,0-3.583-.107-5.337-.311Z" fill="#009ee0"></path><path d="M310.517,79.2051l-.43-.3224c-1.076,1.4403-2.077,2.9666-2.97,4.5143l.462.2687c.883-1.537,1.873-3.031,2.938-4.4606Z" fill="#009ee0"></path><path d="M307.16,129.863c.904,1.547,1.904,3.063,2.98,4.503l.431-.322c-1.065-1.419-2.055-2.924-2.949-4.45l-.462.269Z" fill="#009ee0"></path><path d="M317.835,71.4448l-.345-.4084c-1.377,1.1608-2.69,2.4076-3.928,3.7189l.388.3655c1.216-1.2898,2.529-2.5259,3.885-3.676Z" fill="#009ee0"></path><path d="M302.124,98.6599l-.528-.0968c-.312,1.7739-.516,3.5789-.613,5.3639l.538.032c.097-1.774.301-3.558.613-5.3099l-.01.0108Z" fill="#009ee0"></path><path d="M387.361,129.433l.463.268c.893-1.558,1.711-3.181,2.421-4.836l-.495-.215c-.7,1.633-1.507,3.246-2.389,4.783Z" fill="#009ee0"></path><path d="M358.091,61.3198c-1.754-.4085-3.54-.7202-5.327-.9244l-.064.5374c1.764.2042,3.54.5052,5.273.9136l.118-.5266Z" fill="#009ee0"></path><path d="M381.012,138.01l.398.365c1.227-1.311,2.4-2.708,3.465-4.149l-.431-.322c-1.054,1.419-2.206,2.805-3.422,4.106h-.01Z" fill="#009ee0"></path><path d="M393.279,98.3911c-.312-1.7627-.742-3.5362-1.259-5.256l-.516.1505c.516,1.6983.936,3.4503,1.248,5.1915l.527-.0967v.0107Z" fill="#009ee0"></path><path d="M391.579,119.63l.517.15c.505-1.719.925-3.493,1.226-5.266l-.527-.097c-.301,1.752-.71,3.504-1.216,5.202v.011Z" fill="#009ee0"></path><path d="M393.376,103.787c.054.913.086,1.859.086,2.805c0,.849-.021,1.698-.065,2.537l.539.032c.043-.849.064-1.709.064-2.558c0-.957-.032-1.913-.086-2.838l-.538.033v-.011Z" fill="#009ee0"></path><path d="M390.148,88.0619c-.721-1.6445-1.539-3.2568-2.443-4.8153l-.463.2687c.893,1.537,1.711,3.1385,2.421,4.7615l.495-.2149h-.01Z" fill="#009ee0"></path><path d="M384.703,78.743c-1.076-1.4295-2.249-2.8268-3.486-4.1274l-.388.3655c1.227,1.2898,2.389,2.6656,3.444,4.0843l.43-.3224Z" fill="#009ee0"></path><path d="M363.342,149.726l.183.505c1.679-.624,3.347-1.355,4.961-2.171l-.247-.484c-1.582.806-3.24,1.526-4.897,2.139v.011Z" fill="#009ee0"></path><path d="M352.969,152.219l.064.538c1.787-.215,3.573-.538,5.327-.957l-.129-.527c-1.733.42-3.497.731-5.262.946Z" fill="#009ee0"></path><path d="M368.249,64.9958c-1.603-.8062-3.282-1.5263-4.971-2.139l-.183.5052c1.668.6019,3.325,1.3113,4.917,2.1067l.237-.4837v.0108Z" fill="#009ee0"></path><path d="M377.278,70.9181c-1.378-1.15-2.841-2.2356-4.348-3.2245l-.29.4514c1.485.9781,2.927,2.0422,4.293,3.1816l.345-.4085Z" fill="#009ee0"></path><path d="M372.855,144.889l.301.451c1.496-.999,2.949-2.085,4.326-3.246l-.344-.408c-1.356,1.15-2.798,2.225-4.272,3.214l-.011-.011Z" fill="#009ee0"></path><path d="M347.448,97.9934c-4.745,0-8.609,3.8586-8.609,8.5986s3.864,8.599,8.609,8.599c4.746,0,8.609-3.859,8.609-8.599s-3.863-8.5986-8.609-8.5986Zm0,16.6596c-4.444,0-8.071-3.611-8.071-8.061s3.616-8.0612,8.071-8.0612s8.071,3.6112,8.071,8.0612-3.616,8.061-8.071,8.061Z" fill="#009ee0"></path><path d="M347.448,94.3175c-6.779,0-12.289,5.5032-12.289,12.2745c0,6.772,5.51,12.275,12.289,12.275c6.78,0,12.289-5.503,12.289-12.275c0-6.7713-5.509-12.2745-12.289-12.2745Zm0,24.0225c-6.478,0-11.751-5.266-11.751-11.737s5.273-11.7373,11.751-11.7373s11.751,5.2663,11.751,11.7373-5.273,11.737-11.751,11.737Z" fill="#009ee0"></path><path d="M239.796,157.475l-2.206,1.537c-.118.086-.15.248-.064.377.053.075.14.118.215.118.054,0,.108-.011.151-.043l2.206-1.537c.118-.086.15-.247.064-.376s-.258-.151-.377-.065l.011-.011Z" fill="#009ee0"></path><path d="M271.67,135.269l-4.423,3.085c-.118.086-.15.247-.064.376.054.075.14.118.215.118.054,0,.108-.01.151-.043l4.423-3.085c.118-.086.15-.247.064-.376-.086-.118-.258-.15-.377-.064l.011-.011Z" fill="#009ee0"></path><path d="M263.697,140.826l-4.423,3.085c-.119.086-.151.247-.065.376.054.075.14.118.215.118.054,0,.108-.011.151-.043l4.423-3.085c.118-.086.151-.247.064-.376-.086-.118-.258-.15-.376-.064l.011-.011Z" fill="#009ee0"></path><path d="M279.634,129.723l-4.423,3.085c-.119.086-.151.247-.065.376.054.075.14.118.216.118.053,0,.107-.011.15-.043l4.423-3.085c.118-.086.151-.247.064-.376-.086-.118-.258-.15-.376-.064l.011-.011Z" fill="#009ee0"></path><path d="M247.76,151.918l-4.423,3.085c-.119.086-.151.247-.065.376.054.076.14.119.215.119.054,0,.108-.011.151-.043l4.423-3.085c.118-.086.151-.247.064-.376-.086-.119-.258-.151-.376-.065l.011-.011Z" fill="#009ee0"></path><path d="M255.733,146.372l-4.423,3.085c-.118.086-.15.247-.064.376.054.075.14.118.215.118.054,0,.108-.01.151-.043l4.423-3.084c.118-.086.15-.248.064-.377-.086-.118-.258-.15-.377-.064l.011-.011Z" fill="#009ee0"></path><path d="M287.607,124.166l-4.423,3.085c-.118.086-.15.247-.064.376.054.075.14.118.215.118.054,0,.108-.011.151-.043l4.423-3.085c.118-.086.15-.247.064-.376-.086-.118-.258-.15-.377-.064l.011-.011Z" fill="#009ee0"></path><path d="M330.726,106.323h-5.402c-.15,0-.269.119-.269.269c0,.151.119.269.269.269h5.402c.151,0,.269-.118.269-.269c0-.15-.118-.269-.269-.269Z" fill="#009ee0"></path><path d="M340.443,106.323h-5.402c-.15,0-.269.119-.269.269c0,.151.119.269.269.269h5.402c.151,0,.269-.118.269-.269c0-.15-.118-.269-.269-.269Z" fill="#009ee0"></path><path d="M321.009,106.323h-5.402c-.151,0-.269.119-.269.269c0,.151.118.269.269.269h5.402c.151,0,.269-.118.269-.269c0-.15-.118-.269-.269-.269Z" fill="#009ee0"></path><path d="M295.57,118.62l-4.423,3.085c-.118.086-.15.247-.064.376.054.075.14.118.226.118.054,0,.107-.011.15-.054l4.423-3.085c.119-.086.151-.247.065-.376-.086-.118-.258-.15-.377-.064Z" fill="#009ee0"></path><path d="M303.544,113.073l-4.422,3.085c-.119.086-.151.247-.065.376.054.076.14.119.226.119.054,0,.108-.011.151-.043l4.422-3.085c.119-.086.151-.247.065-.376-.086-.119-.258-.151-.377-.065v-.011Z" fill="#009ee0"></path><path d="M311.507,107.517l-4.423,3.084c-.118.086-.15.248-.064.377.054.075.14.118.226.118.054,0,.107-.011.15-.043l4.423-3.085c.119-.086.151-.247.065-.376-.086-.118-.258-.151-.377-.065v-.01Z" fill="#009ee0"></path><path d="M347.449,106.323h-2.691c-.15,0-.269.119-.269.269c0,.151.119.269.269.269h2.691c.15,0,.269-.118.269-.269c0-.15-.119-.269-.269-.269Z" fill="#009ee0"></path><path d="M142.97,96.8219c0,0,.021-.5159.043-1.3436-.011-.2794,0-.5911.011-.9243.021-.6019.053-1.2791-.054-1.9455-.108-1.0318-.172-2.0637-.215-2.8483-.044-.7632-.076-1.1931-.14-1.4188-.076-.387-.431-2.2142-.721-4.0629-.517-1.7198-.969-3.4825-1.076-3.9017c0-.172-.119-.4729-.485-1.3758-.29-.7201-.667-1.6875-1-2.6441-.205-.6772-.517-1.2791-.808-1.8165-.161-.2902-.301-.5697-.419-.8599-.334-.6664-.592-1.1393-.592-1.1393-.011-.0215-.226-.4944-.581-1.2468l-.614-.9566c-.29-.4515-.613-.9351-.914-1.4188-.646-1.1286-1.173-1.924-1.614-2.4077-.485-.6341-.829-1.0318-.829-1.0318-.613-.7739-4.455-5.4495-5.649-6.1589-.097-.086-.452-.3977-.98-.8491-.226-.172-.452-.3869-.688-.6127-.442-.4084-.926-.8813-1.528-1.236-1.701-1.1501-3.379-2.4077-3.455-2.4507-.021,0-1.861-.9888-3.605-2.0207-.581-.3762-1.216-.6234-1.764-.8383-.323-.129-.624-.2365-.904-.387-.517-.215-.904-.3869-1.087-.4622-.926-.7846-8.071-2.5581-8.135-2.5581h-.033c-.172-.0322-.591-.129-1.14-.2472-.797-.2472-1.873-.3655-2.895-.4407-.463-.0537-.915-.1182-1.3451-.172-.5488-.0752-1.0653-.1397-1.5496-.1934h-1.302c0,0-.5273,0-1.3129-.0215h-.1399c-.2152,0-.4519,0-.7102-.0215-.6779-.0323-1.485-.043-2.0446.043-1.0115.1074-2.0338.1719-2.8086.2149-.99.0645-1.3128.086-1.4742.1505-.4412.086-2.2167.4407-4.0461.7094-1.7648.5267-3.5619.9888-3.9385,1.0856-.1614,0-.3766.086-1.3666.4729-.721.2795-1.6787.6664-2.6257.9889-.7102.2149-1.3451.5589-1.9047.8598-.2582.1398-.5057.2795-.7425.387l-1.1622.5697c0,0-.4734.2149-1.2267.5804-.6564.4299-1.5281.9781-2.3889,1.5155-1.0654.6127-1.8832,1.1608-2.432,1.6123-.5918.4836-.99.8061-.99.8061-1.2698.7631-6.0907,5.3312-6.2413,5.7182-.1291.1612-.4089.4944-.7963.9243-.1722.2365-.4089.4837-.6457.7417-.3981.4299-.8501.9136-1.1944,1.4832-1.173,1.6983-2.3997,3.3966-2.4428,3.4503c0,.0215-.99,1.8487-2.023,3.59-.4089.6126-.6672,1.2683-.8824,1.838-.1184.3009-.2152.5696-.3444.8276l-.5273,1.1931.0431.0215c-1.0008,1.4187-2.5288,7.8356-2.5396,7.9v.1398c-.0538.1934-.1614.6126-.2798,1.1608-.1937.6557-.3336,1.5693-.4412,2.9236-.1291,1.0103-.2582,2.0099-.3658,2.8268v1.3006c0,0,0,.5267-.0216,1.322.0108.2795,0,.5912-.0215.9351-.0323.602-.0645,1.2899.0431,1.9455.0968.9351.1614,1.881.2044,2.6226.0646.9458.0969,1.4298.183,1.6658.086.473.4304,2.257.6887,4.063.5165,1.655.9684,3.375,1.0868,3.848.0108.269.2045.742.5811,1.688.269.677.6134,1.526.9039,2.353.1937.688.5273,1.312.8178,1.849.1507.28.2906.538.3982.796.3443.72.5811,1.171.5811,1.171l.5811,1.215l1.528,2.397c.5273.892,1.0761,1.816,1.6249,2.407.4627.591.7856,1.011.7856,1.011h.0107c.6134.763,4.4443,5.395,5.6603,6.158l.99.839c.2044.161.4196.365.6456.58.452.43.9577.914,1.5711,1.269c1.7002,1.15,3.3789,2.386,3.4543,2.429.0215,0,1.8509.989,3.6049,2.02.5918.409,1.2375.656,1.8078.882.3121.118.5919.236.8609.365l1.0868.484c.947.742,8.0707,2.537,8.1353,2.537h.0107c.1722.032.6027.129,1.1622.247.7748.247,1.8509.354,2.8732.44c1.0438.129,2.0768.258,2.8839.366h1.2806c0,0,.5272,0,1.3558.021h.1399c.2152,0,.452,0,.7102.022.3014.011.6134.032.9363.032.4196,0,.7855-.032,1.0976-.075.9469-.097,1.9154-.161,2.6687-.204.9145-.054,1.3775-.086,1.6145-.172.452-.086,2.216-.409,4.056-.699c1.722-.516,3.509-.978,3.917-1.086.183,0,.474-.107,1.69-.601.667-.269,1.485-.602,2.281-.893.7-.182,1.313-.515,1.84-.806.291-.15.56-.301.84-.419.667-.333,1.13-.548,1.162-.559c0,0,.463-.247,1.216-.591.635-.408,1.539-.978,2.378-1.526.893-.538,1.819-1.086,2.41-1.623.625-.473,1.033-.796,1.033-.796c1.292-.741,6.059-5.299,6.22-5.707l.786-.946c.161-.204.366-.419.592-.656.43-.44.914-.945,1.269-1.547c1.152-1.72,2.4-3.375,2.454-3.451c0-.021.99-1.87,2.012-3.622.431-.612.689-1.279.915-1.881.108-.279.204-.537.323-.774.323-.709.538-1.193.538-1.193l-.043-.021c1.001-1.43,2.539-7.89,2.539-7.965v-.064c.043-.183.151-.602.269-1.15.226-.807.334-1.86.442-2.87.129-1.0213.258-2.0747.344-2.8915v-1.2791l.054.0645Zm-.807-2.3002c-.011.3655-.033.6987-.011.9781-.022.7847-.043,1.2898-.043,1.3113v1.2469c-.086.7631-.205,1.8057-.334,2.838-.107.988-.204,1.999-.419,2.762-.173.742-.291,1.247-.291,1.247l-.118.473h.053c-.312,1.397-1.657,5.901-2.141,6.997l-.065-.022-.161.355c0,0-.215.494-.527,1.182-.119.248-.226.527-.345.828-.215.548-.452,1.172-.839,1.72-1.044,1.773-2.023,3.622-2.023,3.622s-1.291,1.698-2.453,3.45c-.323.527-.764,1-1.163,1.408-.247.258-.462.495-.635.699l-1.129,1.322.053.043c-.817.946-4.326,4.084-5.412,4.912l-.022-.043-.355.279c0,0-.409.323-1.044.807-.549.505-1.442,1.031-2.313,1.558-.85.548-1.744,1.129-2.325,1.505-.721.322-1.205.58-1.205.58-.021.011-.495.226-1.141.548-.279.119-.57.269-.893.441-.516.28-1.054.57-1.7.742-.839.312-1.668.645-2.335.913-.42.172-.85.344-1.108.441l-.388.097c0,0-2.077.527-3.992,1.107-2.077.322-4.132.709-4.132.709l-.355.065c-.259.021-.668.054-1.0551.075-.764.054-1.7325.108-2.7225.215-.538.086-1.259.075-1.8831.043-.269-.011-.5165-.021-.7533-.021h-.1506c-.7748,0-1.3021-.022-1.3236-.022h-1.2375c-.7533-.097-1.7971-.226-2.8624-.355-.947-.086-2.0123-.182-2.7441-.419-.7748-.172-1.2805-.279-1.2805-.279l-.452-.097v.021c-1.3989-.311-5.8754-1.655-7.0053-2.138l.0215-.054-1.5173-.677c-.269-.14-.5811-.269-.9254-.398-.5488-.215-1.1192-.441-1.6572-.806-1.7756-1.043-3.6049-2.021-3.6157-2.021c0,0-1.7217-1.257-3.4542-2.429-.5488-.322-1.0008-.752-1.4312-1.161-.2475-.236-.4843-.451-.6995-.623l-1.2698-1.075-.043.043c-.9147-.796-4.0784-4.321-4.9608-5.439h.0215l-.269-.376c0,0-.3228-.43-.8178-1.053-.5058-.559-1.0546-1.484-1.5496-2.311l-1.5065-2.365-.5596-1.193c0,0-.2367-.441-.5596-1.139-.1076-.258-.269-.549-.4304-.849-.269-.506-.5811-1.075-.7533-1.709-.312-.871-.6564-1.72-.9254-2.408-.1614-.398-.3228-.817-.4197-1.086l-.0968-.365c0-.022-.5273-2.064-1.1192-3.966-.3981-2.784-.5811-3.859-.7532-4.278-.0323-.183-.0646-.753-.1076-1.3115-.0538-.7524-.1077-1.7198-.2153-2.6979-.0968-.5911-.0645-1.2253-.0322-1.7842.0215-.3762.0322-.7202.0215-.9889.0215-.7739.0215-1.3113.0215-1.3113v-1.2468c.0969-.7631.226-1.7627.3659-2.8376.1076-1.2468.2367-2.1389.4196-2.7516.1722-.7631.2906-1.2683.2906-1.2683l.1076-.4299h-.0538c.2905-1.3221,1.6357-5.8472,2.1414-7.0187l.0538.0214.6995-1.5585c.1291-.2579.2475-.5589.3766-.8813.2045-.5375.4412-1.1394.8071-1.6875c1.0546-1.7628,2.0338-3.59,2.023-3.59c0,0,1.2483-1.7198,2.432-3.4395.3121-.5159.7102-.9459,1.0976-1.3651.269-.2902.5165-.5589.6887-.7846.5165-.5804.8609-.9889.8609-.9889l.269-.3117-.043-.0322c.8501-.9459,4.4012-4.1167,5.4557-4.9335l.0216.0322.3336-.258c0,0,.4089-.3224,1.0115-.8168.5057-.43,1.2805-.9459,2.3243-1.5371.8717-.5481,1.7541-1.1071,2.3674-1.5047.6995-.3332,1.1622-.5482,1.173-.559l1.1622-.5696c.2475-.1075.5057-.2472.7855-.4085.5273-.2794,1.1191-.6019,1.7648-.7953.9792-.344,1.9477-.7202,2.6795-1.0104.3335-.129.6779-.2687.8823-.344l.3014-.0752c0,0,2.0553-.5159,3.9923-1.0963c2.0553-.2902,4.1214-.7202,4.1429-.7309l.226-.043c.226-.0215.6349-.043,1.033-.0753.7856-.043,1.8186-.1074,2.8624-.2257.5381-.086,1.2591-.0752,1.8832-.043.269.0108.5165.0215.7533.0215h.1399c.7747.0215,1.3128.0215,1.3128.0215h1.2483c.4304.043.9361.1075,1.4742.1828.4307.0537.8927.1182,1.3777.1719.99.0753,2.012.1827,2.754.4192.754.172,1.27.2795,1.27.2795l.398.086v-.0323c1.324.2902,5.919,1.6553,7.049,2.1604l-.022.0645.377.1613c0,0,.484.2149,1.162.5051.28.1398.613.2688.958.4085.538.215,1.097.4299,1.625.7739c1.754,1.0426,3.594,2.0207,3.605,2.0207.032.0215,1.721,1.279,3.443,2.4506.538.3225.99.7524,1.399,1.1393.269.258.517.4945.743.6557.591.5052.979.8491.979.8491l.301.2687.054-.0537c.947.8169,4.175,4.4176,4.961,5.4602l-.054.0537.29.3332c0,0,.334.3762.807.9996.42.473.915,1.2146,1.539,2.311.312.4944.635.9888.926,1.4402l.581.9029c.333.7202.549,1.1823.559,1.2146c0,0,.259.4622.581,1.1071.119.2794.28.5804.442.9028.258.4945.559,1.0534.742,1.6768.345.9889.732,1.967,1.022,2.6979.14.3439.28.7094.356.9243l.064.2472c0,0,.517,2.053,1.098,3.9877.312,2.0314.721,4.0952.731,4.1166l.044.2258c.021.2257.043.6234.064,1.0103.043.7847.108,1.838.226,2.9021.097.6127.075,1.2146.054,1.795l.011-.0108Z" fill="#009ee0"></path><path d="M80.4916,38.3504c.5703,0,1.1514-.0645,1.7109-.1935c2.0231-.4514,3.7448-1.6552,4.864-3.4072c1.1083-1.752,1.4634-3.8264,1.0115-5.8364-.7963-3.504-3.9923-6.0514-7.5757-6.0514-.5596,0-1.1299.0645-1.6895.1828-4.1644.9458-6.8008,5.0947-5.8646,9.2544.807,3.5684,3.9062,6.0621,7.5434,6.0621v-.0108ZM79.0065,23.883c.495-.1074,1.0008-.1612,1.4958-.1612c3.196,0,6.0261,2.2572,6.7363,5.3742.409,1.795.0861,3.633-.8931,5.1915-.99,1.5585-2.5181,2.6334-4.3259,3.0311-.5058.1182-1.0115.1719-1.528.1719-3.2283,0-5.9831-2.2141-6.7041-5.3849-.8286-3.6975,1.5173-7.3842,5.219-8.2226Z" fill="#009ee0"></path><g id="enWKIksVPNo75_tr" transform="translate(94.884972,94.796013) rotate(360)"><path d="M189.521,86.9226c-.064-.7417-.57-1.3221-1.162-1.3543c0,0-1.862-.129-3.734-.2365-.581-.0322-1.151-.0645-1.689-.1075-.054-.6234-.108-1.1501-.151-1.5155-.043-.4407-.086-.7094-.086-.7094s-.14-.8384-.377-2.1497c.205-.0645.42-.1397.646-.215.312-.1075.635-.2149.968-.3117c1.765-.6234,3.562-1.236,3.573-1.236.56-.215.893-.9352.742-1.6231l-.602-3.4502c-.463-1.6553-.893-3.332-.893-3.3535-.205-.6557-.743-1.1393-1.292-1.1393l-3.863.4299c-.581.0752-1.151.1397-1.678.1935l-.764-2.7731c-.13-.3547-.313-.8277-.539-1.4403.377-.2042.797-.43,1.216-.6557l.28-.1505c1.614-.9136,3.25-1.8272,3.239-1.8272.592-.2902.71-1.1071.484-1.7305l-1.226-3.2353c-.603-1.666-1.399-3.1815-1.431-3.2352-.302-.6342-1.066-1.0211-1.572-.8707c0,0-1.818.5052-3.669,1.0534-.538.1612-1.098.3332-1.582.4944l-.979-1.9669c0,0-.398-.7847-1.012-1.9993.42-.3224.872-.6771,1.313-1.0533c1.442-1.1501,2.895-2.3432,2.895-2.3432.473-.3761.538-1.1608.14-1.8057l-3.713-5.9116c-.419-.5589-1.119-.8384-1.7-.5804c0,0-1.711.8276-3.422,1.6875l-.247.1182c-.431.215-.861.4299-1.259.6449-.829-1.0426-1.378-1.7412-1.378-1.7412s-.516-.6879-1.345-1.7628c.344-.3869.732-.8061,1.162-1.279c1.238-1.4511,2.454-2.8484,2.454-2.8591.419-.4837.355-1.3221-.14-1.8058l-4.767-5.1055c-.506-.4944-1.259-.6664-1.776-.3224c0,0-1.517,1.1071-3.013,2.2142-.43.3117-.828.6126-1.216.9028l-.151.1183c-1-.8707-1.646-1.4511-1.657-1.4618c0,0-.656-.5804-1.668-1.4511.237-.3869.495-.7954.754-1.2145l2.066-3.4718c.312-.5159.107-1.2683-.452-1.7412l-.797-.6879c-.473-.4515-1.172-.9566-1.926-1.5156-1.42-.9781-2.819-1.9992-2.83-1.9992-.57-.3977-1.388-.4084-1.797.0108l-2.604,2.7301c-.258.2687-.527.5589-.786.8276-.129.1397-.258.2687-.376.3977-1.087-.7416-1.808-1.2361-1.84-1.2576l-1.894-1.0963c.204-.4837.419-1.0319.624-1.58.678-1.7413,1.345-3.4825,1.345-3.4825.237-.5589-.108-1.2898-.764-1.6445c0,0-1.496-.8491-3.024-1.6983-.732-.4299-1.528-.8276-2.152-1.08556-.603-.27946-1.001-.45144-1.001-.45144-.645-.29021-1.453-.13973-1.775.34395c0,0-1.023,1.56925-2.099,3.11705-.301.4944-.624.9889-.914,1.4188-1.227-.5159-2.023-.8599-2.023-.8599s-.808-.3547-2.045-.8814l.043-.2364c.086-.4407.183-.9136.312-1.4403l.678-3.65448c.129-.59116-.312-1.22532-1.033-1.48328L119.93,3.2353c-.656-.19347-1.431.10749-1.711.6664c0,0-.774,1.709-1.517,3.461-.118.29021-.247.58041-.366.85987-.107.24722-.204.48368-.301.7094-1.313-.3117-2.163-.48368-2.174-.48368c0,0-.871-.17198-2.163-.45143.022-.53743.033-1.15009.054-1.74125.043-1.88097.065-3.7512.065-3.76195c0-.59116-.549-1.17158-1.302-1.32206l-6.909-.806128c-.742-.096736-1.431.311704-1.56.881368l-.893,3.63297c-.119.59116-.259,1.15008-.388,1.65526-1.3341-.04299-2.2057-.08599-2.2272-.08599c0,0-.8717,0-2.206-.03224l-.0216-.19348c-.0645-.47293-.1291-.98885-.2259-1.49403l-.5919-3.68671c-.0646-.591161-.6994-1.064092-1.4312-1.064092c0,0-.4412-.021497-1.0976-.021497-.6134,0-1.5281.021497-2.432.107485l-3.4865.257962c-.7317.06449-1.3451.580415-1.3774,1.171582c0,0-.1076,1.87022-.2583,3.74045-.0215.58041-.043,1.15008-.0753,1.66601-.4089.03224-.764.07523-1.0761.10748l-.495.05374c-.3766.06449-.6026.08599-.6564.08599c0,0-.8393.16123-2.1414.39769-.1184-.34395-.2368-.72014-.3659-1.09634l-.1829-.53742c-.6134-1.76274-1.216-3.55773-1.2268-3.58997-.2367-.52668-.8931-.83838-1.6141-.72015c0,0-1.711.30096-3.4543.62341l-3.3681.89212c-.6995.18272-1.1945.79538-1.1299,1.3758l.3874,3.76195c.0861.58041.1506,1.16083.2152,1.666l-2.1307.59118-1.2159.4084c-.2475.086-.5381.1935-.8717.3117-.2475-.4729-.5273-.9781-.8071-1.50475-.9146-1.61226-1.8078-3.25677-1.8185-3.26752-.2906-.49443-1.0223-.7094-1.7433-.45143c0,0-1.6249.63415-3.239,1.23607-1.6465.60191-3.1638,1.39729-3.2283,1.42954-.6457.32245-1.0331,1.0211-.8609,1.59079c0,0,.5058,1.8165,1.0438,3.6007.1507.5697.3228,1.1286.4843,1.6338-1.1945.5911-1.9693.9781-1.9801.9781c0,0-.7532.3977-1.9692,1.0211-.3336-.4192-.6887-.8814-1.0546-1.3328L48.478,13.2636c-.3874-.4514-1.2267-.4944-1.7971-.129l-5.94,3.7297c-.5703.4299-.8178,1.1823-.5596,1.709c0,0,.8286,1.6768,1.668,3.3858.1614.3224.3336.6449.4842.9566.0969.1934.1937.3762.2906.5589-1.0654.8061-1.7648,1.3543-1.7648,1.3543s-.7102.5374-1.7648,1.3435c-.1507-.1289-.3013-.2687-.452-.3976-.269-.2365-.5488-.4837-.8286-.7309-1.4312-1.2361-2.8301-2.4722-2.8516-2.4937-.4735-.3654-1.3666-.2794-1.8186.172l-5.1114,4.7616c-.5273.5266-.6565,1.2898-.3013,1.7734c0,0,1.0868,1.4941,2.2059,2.9881l.2045.2687c.2905.387.5703.7524.8178,1.0964L29.485,35.2871c0,0-.5596.6557-1.4527,1.6445-.452-.2687-.947-.5589-1.442-.8813-1.6249-.9782-3.2498-1.9455-3.2606-1.9455-.5057-.2795-1.2913-.0645-1.7217.4407c0,0-.3013.3224-.7317.8169-.409.4729-.9578,1.1715-1.485,1.9347-1.0008,1.4188-1.9908,2.8268-1.9908,2.8268-.4305.5804-.4305,1.3758,0,1.8057c0,0,1.3666,1.2791,2.7117,2.5797.4305.3977.8609.8061,1.2375,1.1715l-1.2805,1.8165-1.0761,1.8918c-.1507-.0645-.3121-.1183-.4735-.1828-.3551-.1397-.7317-.2902-1.1299-.4514l-3.4865-1.3113c-.5488-.2257-1.2806.1075-1.6464.7416l-1.6787,3.0203c-.5058.8814-.88243,1.6123-1.1084,2.1605-.27979.6019-.4412.9781-.4412.9781-.30131.6556-.13989,1.4403.36587,1.7735l4.54113,3.031c-.5273,1.2146-.8717,2.0207-.8717,2.0207s-.3551.8062-.8824,2.0207c-.1829-.0322-.3658-.0752-.5595-.1074-.3551-.0645-.721-.1398-1.0976-.2258-1.86167-.3654-3.66951-.6986-3.68027-.6986h-.17217c-.55957-.0108-1.10838.4299-1.29131,1.0318L3.23913,69.8326c-.20446.6986.09685,1.4617.64565,1.709l3.46502,1.537.38739.1612c.40891.172.82859.344,1.19446.5052-.29055,1.3006-.46272,2.1497-.46272,2.1497s-.20446.8921-.46272,2.1712l-5.52035-.0968c-.61337,0-1.1837.5482-1.30207,1.2683l-.828586,6.9005c-.086088.7309.290544,1.4081.903916,1.58c0,0,1.80783.43,3.63719.8922.57033.1182,1.12989.2364,1.63566.3654-.04305,1.3328-.06457,2.2357-.06457,2.2357s-.02152.8491-.04304,2.1927c-.37663.0537-.78555.1074-1.1837.1719l-4.21828.6664c-.59185.1075-1.054569.7524-1.054569,1.4511c0,.0752-.086087,1.7735.086087,3.5362.150653,1.7195.279784,3.4285.279784,3.4285.032283.72.559567,1.365,1.151418,1.398l3.75556.258c.32282.021.65641.032.97924.053.23674.011.47348.022.69946.033l.04304.472c.03229.42.06457.774.09685,1.086.06457.408.10761.645.10761.645c0,.011.13989.871.37663,2.16-.27978.097-.58109.194-.89315.291l-4.29361,1.483c-.55956.204-.89315.892-.76402,1.612c0,0,.32283,1.698.62413,3.461l.90392,3.354c.19369.666.72098,1.128,1.28055,1.128l3.8524-.387.46272-.053c.43044-.054.85011-.097,1.24827-.151.3443,1.268.5811,2.107.5811,2.117c0,0,.0646.215.1829.678.0753.193.1614.44.269.731l.2583.698c-.452.237-.9685.516-1.485.796l-3.29284,1.838c-.50576.301-.69946,1.064-.4412,1.73l1.23751,3.225c.58109,1.633,1.39892,3.17,1.42044,3.213.3013.635,1.02229,1.032,1.57109.871c0,0,1.8078-.537,3.6372-1.043.5596-.172,1.1191-.344,1.6249-.494.5811,1.193.9685,1.956.9685,1.956s.3981.806,1.0007,1.989l-4.2075,3.407c-.4735.365-.5488,1.161-.1614,1.784l3.734,5.933c.4197.559,1.1945.839,1.711.57c0,0,1.7002-.849,3.4005-1.666.4412-.237.8931-.462,1.3128-.667l.2045-.107c.8285,1.064,1.3451,1.752,1.3558,1.763c0,0,.5381.666,1.3559,1.719-.2044.237-.4304.495-.6672.764l-.4842.548c-1.2375,1.408-2.475,2.837-2.475,2.837-.3982.473-.3228,1.312.1614,1.828l4.7563,5.073c.495.527,1.3344.645,1.754.301c0,0,1.5173-1.086,3.0346-2.193.2798-.204.5488-.419.8179-.623.1829-.14.3658-.28.538-.409c1.0008.903,1.6679,1.462,1.6679,1.462l1.6572,1.462c-.2798.451-.5811.946-.8931,1.44-.9578,1.623-1.9155,3.214-1.9262,3.225-.2906.516-.1076,1.268.4412,1.762c0,0,.3443.28.8178.688.4519.42,1.1084.914,1.9154,1.484c1.4312,1.021,2.8409,2.02,2.8517,2.031.6133.398,1.3989.376,1.7755-.043c0,0,1.3021-1.343,2.5934-2.687l.5919-.634c.2044-.215.3873-.419.5703-.613c1.0761.774,1.7863,1.268,1.8186,1.29c0,0,.7532.43,1.9047,1.064-.1292.333-.2583.677-.3982,1.021l-.2152.559c-.678,1.741-1.3344,3.504-1.3344,3.504-.2367.548.0861,1.258.7425,1.634c0,0,1.5173.849,3.0238,1.687.8286.473,1.5604.882,2.163,1.097.6026.279.99.451.99.451.6456.29,1.4527.14,1.7755-.344l2.6688-3.988c.1291-.193.2582-.386.3766-.569c1.216.548,2.0123.903,2.023.903c0,0,.8071.333,2.0338.87l-.3443,1.656c-.3444,1.827-.6995,3.665-.7102,3.676-.0969.58.3658,1.225,1.0438,1.44l6.6502,2.128c.678.236,1.485-.075,1.711-.634c0,0,.764-1.731,1.5388-3.44.183-.462.3874-.924.5596-1.343l.0968-.237c1.3021.269,2.1738.463,2.1738.463s.8393.193,2.1521.451c0,.537-.0215,1.129-.043,1.72-.0431,1.881-.0646,3.772-.0646,3.783c0,.591.5596,1.172,1.2698,1.301l6.9516.849c.7209.064,1.4096-.344,1.5495-.903c0,0,.452-1.817.8717-3.644l.3981-1.634c1.3128.033,2.2168.043,2.2275.033.0108,0,.8824.021,2.1952.043.0216.161.0431.311.0754.473.0538.397.1183.817.1937,1.225l.5918,3.697c.0754.592.721,1.086,1.4312,1.086c0,0,.3982.022,1.0115.022.6134,0,1.5819-.022,2.5181-.129l3.4757-.258c.732-.054,1.324-.57,1.356-1.161l.258-3.751c.022-.581.043-1.161.076-1.666l.516-.043c.409-.043.743-.065,1.076-.097.388-.086.635-.118.646-.118l2.152-.366c.161.495.355,1.064.527,1.623.635,1.763,1.238,3.526,1.238,3.536.204.559.85.914,1.635.785l3.444-.645l3.368-.892c.689-.183,1.195-.817,1.13-1.397c0,0-.215-1.849-.409-3.708l-.032-.312c-.054-.495-.108-.957-.162-1.397c1.238-.334,2.066-.581,2.066-.581.022,0,.269-.054.689-.183.355-.107.829-.29,1.388-.505l.065-.021c.118.215.237.451.366.688l.43.795c.936,1.634,1.83,3.278,1.83,3.278.301.527,1.162.699,1.721.441c0,0,1.625-.602,3.261-1.236c1.657-.581,3.185-1.397,3.217-1.419.668-.301,1.044-.978.872-1.58l-1.044-3.633c-.172-.548-.344-1.107-.495-1.612l1.959-.978c0,0,.807-.398,2.001-.989l.323.408c.237.29.474.602.732.914l2.356,2.913c.377.44,1.184.516,1.797.15l5.919-3.73c.592-.451.839-1.193.581-1.73c0,0-.829-1.698-1.668-3.386l-.775-1.526c1.066-.806,1.744-1.333,1.744-1.333l1.754-1.365c.204.183.419.366.635.57l.645.58c1.453,1.236,2.852,2.472,2.863,2.472.452.387,1.345.323,1.829-.139l5.101-4.773c.516-.483.656-1.279.312-1.762l-2.217-3.031c-.344-.463-.689-.936-1.012-1.355.872-.999,1.453-1.644,1.453-1.644s.581-.656,1.442-1.677l4.713,2.838c.506.279,1.259.096,1.733-.43c0,0,.301-.344.689-.839.408-.43.904-1.064,1.506-1.924l2.012-2.816c.431-.602.42-1.397,0-1.795c0,0-1.366-1.322-2.711-2.601-.291-.279-.571-.537-.85-.785-.14-.129-.269-.247-.399-.365.754-1.086,1.259-1.784,1.281-1.817l1.076-1.913.43.172c.366.14.743.29,1.141.462c1.743.656,3.497,1.333,3.508,1.344.56.193,1.27-.14,1.625-.774l1.7-3.02c.517-.914.883-1.623,1.087-2.139.28-.591.463-1,.474-1c.301-.655.14-1.44-.366-1.773c0,0-1.561-1.043-3.132-2.118-.409-.258-.817-.505-1.194-.752l-.226-.14c.516-1.214.882-2.01.893-2.031c0,0,.334-.828.861-2.042l.151.032c.473.107.99.226,1.506.311c1.829.344,3.67.699,3.68.699h.162c.538.011,1.065-.408,1.302-1.032l2.12-6.631c.247-.667-.065-1.473-.657-1.72c0,0-1.711-.763-3.432-1.516-.474-.204-.937-.397-1.356-.58l-.226-.097c.29-1.311.473-2.171.473-2.171s.183-.871.474-2.161c.548.022,1.13.033,1.711.033l3.766.086c.581,0,1.162-.548,1.324-1.301l.807-6.9c.129-.71-.28-1.419-.872-1.559c0,0-1.819-.473-3.637-.892l-.614-.15c-.365-.086-.71-.172-1.043-.248.021-1.3432.064-2.1924.064-2.2139c0,0,0-.8813.032-2.1926.528-.086,1.098-.172,1.69-.258l3.712-.6019c.582-.0968,1.034-.7202,1.066-1.4511c0-.0752.064-1.7949-.108-3.5254l-.258-3.4718.075.0323Zm-.495,6.9649c-.011.3547-.215.6127-.344.6342l-3.702.6019c-.732.1075-1.442.215-2.055.3225l-.355.0645v.4944c-.043,1.4188-.043,2.3969-.043,2.3969c0,.0215-.043.9351-.065,2.3431-.021.075-.021.161-.021.237v.343l.333.076c.42.096.893.204,1.388.322l.614.151c1.808.419,3.615.892,3.626.892.108.021.28.279.226.591l-.807,6.879c-.075.333-.334.58-.473.58l-3.767-.086c-.699,0-1.399-.021-2.077-.043l-.452.065v.441c-.322,1.408-.516,2.353-.516,2.353s-.194.936-.474,2.236c-.064.129-.064.269-.064.366v.279l.807.344c.42.183.882.376,1.356.58c1.722.742,3.422,1.505,3.443,1.516.14.054.28.365.183.645l-2.12,6.632c-.107.279-.333.473-.495.473c0,0-1.84-.366-3.68-.699-.506-.086-1.011-.204-1.474-.312l-.883-.193-.182.505c-.582,1.311-.937,2.203-.937,2.203c0,.022-.409.871-.947,2.161-.032.043-.043.075-.021.064l-.377.376l1.001.635c.387.247.786.505,1.184.752c1.56,1.064,3.12,2.107,3.12,2.107.119.075.194.397.065.698c0,0-.194.409-.484,1.032-.194.495-.538,1.172-1.044,2.053l-1.711,3.02c-.151.269-.377.43-.581.387c0,0-1.754-.677-3.487-1.332-.387-.162-.775-.312-1.14-.463l-1.13-.451-1.421,2.526c0,0-.592.827-1.474,2.096l-.215.301.269.258c.215.204.441.408.678.634.269.247.549.505.839.774c1.345,1.279,2.701,2.601,2.712,2.601.075.075.097.387-.097.666l-2.012,2.816c-.581.828-1.055,1.43-1.453,1.86-.398.494-.689.827-.689.827-.183.205-.462.366-.656.258l-3.228-1.913-1.959-1.214-.215.118c-.108.054-.172.129-.248.204-.936,1.096-1.571,1.817-1.571,1.817s-.645.709-1.603,1.816l-.431.247.302.387c.376.484.807,1.054,1.227,1.634l2.216,3.02c.065.097.033.419-.204.634L156.13,166.3c-.194.182-.602.182-.678.118c0,0-1.409-1.236-2.862-2.472l-.635-.57c-.312-.279-.613-.559-.904-.795l-.226-.194-.258.14c0,0-.086.054-.194.129l-1.915,1.483c0,0-.743.57-1.97,1.494l-.366.194l1.13,2.225c.829,1.687,1.658,3.385,1.668,3.385.065.129-.032.441-.29.645l-5.876,3.698c-.236.14-.592.129-.678.032l-2.345-2.902c-.259-.312-.495-.623-.732-.914l-.549-.688-.248-.236-.301.14c0,0-.107.043-.161.096-1.259.624-2.109,1.043-2.109,1.043l-2.131,1.064-.463.258.097.333c.172.602.387,1.29.603,1.957l1.044,3.611c.043.161-.119.43-.431.57-.011,0-1.528.817-3.131,1.386-1.636.634-3.25,1.236-3.282,1.247-.248.108-.571.054-.635-.064c0,0-.893-1.645-1.83-3.279l-.419-.784c-.194-.355-.377-.688-.528-1l-.118-.236h-.258c-.086,0-.162.021-.215.043l-.366.129c-.549.204-1.001.376-1.345.483-.366.118-.582.161-.635.172c0,0-1.001.29-2.443.677l-.355.097.032.366c.054.548.118,1.15.194,1.784l.032.311c.194,1.86.409,3.709.409,3.709.011.129-.194.387-.495.473l-3.336.892-3.4.634c-.345.064-.635-.108-.678-.226c0,0-.603-1.773-1.238-3.525-.215-.688-.452-1.398-.645-1.967l-.119-.355-2.873.484c0,0-.269.043-.613.118-.269.011-.625.043-1.044.086l-.667.064c0,0-.097,0-.173.022h-.398l-.021.398c-.043.602-.086,1.332-.108,2.042l-.258,3.74c0,.129-.226.333-.56.355l-3.4862.258c-.9147.097-1.8293.118-2.4427.118s-.9685-.021-.99-.021c-.3444,0-.5811-.226-.6026-.344l-.6026-3.719c-.0754-.409-.1292-.817-.1937-1.215-.0431-.29-.0861-.58-.1292-.849l-.0645-.355h-.5058c-1.4527-.021-2.4104-.043-2.4212-.043c0,0-.947,0-2.3351-.043-.0215,0-.043,0-.043,0l-.4628-.204-.6133,2.505c-.4305,1.827-.8717,3.633-.8717,3.643-.0215.086-.3013.226-.6134.247l-6.9085-.849c-.312-.053-.538-.301-.538-.44c0,0,.0215-1.892.0646-3.762.0215-.731.043-1.451.043-2.085v-.258l-.2367-.119c-.1292-.075-.2691-.064-.2583-.064-1.3989-.301-2.3351-.505-2.3459-.516c0,0-.9577-.215-2.3674-.505l-.1614-.054h-.3766l-.3551.828c-.183.43-.3767.892-.5596,1.343-.764,1.709-1.5388,3.429-1.5388,3.44-.0538.129-.3336.258-.6457.161l-6.661-2.128c-.3013-.097-.4734-.366-.4519-.462c0,0,.3658-1.838.6994-3.666l.4305-2.02.1721-.516h-.5272l-.1184-.033c-1.2913-.558-2.1414-.913-2.1414-.913s-.8824-.387-2.1953-.978l-.4734-.237-.2153.333c-.1829.28-.3766.57-.5703.871l-2.6687,3.977c-.0646.097-.4089.172-.7102.032c0,0-.3874-.172-1.0008-.451-.5703-.215-1.2805-.602-2.0768-1.064-1.5066-.828-3.0238-1.677-3.0238-1.677-.3013-.172-.409-.451-.3659-.559c0,0,.6564-1.763,1.3451-3.515l.2152-.559c.1937-.483.3767-.956.5381-1.397l.1291-.344-.3228-.172c-1.2913-.709-2.1737-1.214-2.1845-1.214-.0323-.022-.8716-.602-2.0876-1.484l-.3121-.225-.2582.29c-.2583.279-.5273.58-.8286.892l-.5919.634c-1.2805,1.344-2.5826,2.687-2.5826,2.687-.1722.183-.4627.054-.6672-.086c0,0-1.4097-.999-2.8409-2.021-.7855-.548-1.3989-1.021-1.8401-1.418-.4842-.42-.8286-.699-.8286-.699-.2582-.236-.3228-.559-.2582-.666c0,0,.9577-1.602,1.9154-3.214.3874-.613.764-1.236,1.0869-1.774l.1829-.419-.3981-.215-1.8186-1.601c0,0-.721-.613-1.7971-1.58l-.3013.311.2044-.408-.2582-.258-.2906.215c-.2582.193-.538.408-.8286.623-.269.205-.538.409-.807.613-1.5173,1.107-3.0238,2.193-3.0454,2.203-.1076.086-.4304-.01-.6133-.204l-4.7564-5.073c-.2259-.247-.2152-.591-.1399-.688c0,0,1.2376-1.429,2.4751-2.827l.4842-.548c.3228-.365.6349-.72.9039-1.032l.3659-.419-.4305-.215-.0322-.043c-.8717-1.129-1.4635-1.87-1.4635-1.87s-.5811-.774-1.4312-1.86c-.0215-.043-.0538-.075-.0753-.107l-.183-.409-.9254.463c-.4305.215-.8824.44-1.3236.677-1.6895.806-3.3897,1.666-3.4758,1.677-.1506,0-.3981-.119-.538-.301l-3.7125-5.901c-.1722-.28-.1184-.581-.0323-.656l2.8731-2.354l1.9047-1.494-.1722-.322c0,0-.0538-.086-.086-.129-.6565-1.269-1.0869-2.139-1.0869-2.15c0,0-.4304-.849-1.0653-2.16-.0215-.043-.0538-.076-.0754-.108l-.1506-.344-.3551.108c-.5811.172-1.2913.387-1.9585.601-1.8186.506-3.6372,1.043-3.6695,1.054-.15062,0-.40889-.172-.52726-.43c0-.011-.82859-1.548-1.38815-3.128l-1.23751-3.246c-.12913-.312-.04304-.623.06457-.677l3.28205-1.827c.6457-.344,1.2806-.677,1.8079-.957l.3228-.172-.1076-.344c-.0215-.086-.0538-.172-.0754-.193l-.3228-.882c-.1076-.29-.1937-.548-.2582-.698-.1076-.43-.1722-.656-.1722-.656c0-.011-.2798-1.01-.678-2.472l-.0968-.366-.3766.054c-.48427.065-1.03308.129-1.60341.204l-4.20751.441c-.15066,0-.36588-.193-.45196-.494l-.89316-3.3c-.3013-1.731-.61337-3.429-.61337-3.429-.0538-.322.08609-.613.20446-.656l3.54034-1.236.73174-.236c.4412-.14.87163-.28,1.25903-.419l.34434-.118L8.57654,109c-.27979-1.483-.4412-2.505-.4412-2.515c0,0-.04304-.237-.09685-.602-.03228-.28-.0538-.634-.08608-1.043l-.05381-.655c0-.065-.01076-.129-.02152-.151v-.398l-.39815-.032c-.33359-.021-.69946-.043-1.08686-.054-.32282-.01-.64565-.032-.96848-.053l-3.76632-.258c-.09684,0-.32282-.226-.34435-.581c0,0-.12913-1.73-.27978-3.4607-.172174-1.6983-.086086-3.3965-.086086-3.4288c0-.3332.204456-.6019.344346-.6234l4.20752-.6664c.53804-.0752,1.07609-.1612,1.54957-.2257l.37663-.0538v-.5374c.02152-1.451.04305-2.3861.04305-2.3861s.02152-.9781.06456-2.4184l.02152-.5052-.32282-.086c-.60262-.1505-1.31284-.3009-2.00153-.4514-1.80784-.4622-3.61567-.8921-3.61567-.8921-.16141-.043-.30131-.3225-.26902-.6449l.82859-6.879c.0538-.3225.3013-.5375.4412-.5375l3.76631.043l2.39969.0753.15065-.5052c.3013-1.4188.50576-2.3539.51652-2.3647c0,0,.1937-.9351.52729-2.4184l.02152-.4299-.2475-.1182c-.45196-.215-.99001-.4407-1.53881-.6557L4.37978,70.7999c-.1076-.0537-.25826-.3439-.17217-.6664l2.14142-6.6318c.08609-.2794.31207-.4944.495-.4514c0,0,1.80784.344,3.65867.6987.3767.0752.7425.1504,1.0977.2257.3228.0645.6241.1182.9039.1827l.3336.0645.1506-.301c0,0,.0538-.1182.0753-.2149.5596-1.2791.9255-2.1282.9362-2.1282c0,0,.3874-.8922.9578-2.2142l-.3982-.172.452.0538.1506-.3332-5.1437-3.4395c-.11837-.0753-.19369-.3977-.0538-.7094c0,0,.1722-.387.452-.9889.2152-.5267.581-1.2253,1.0653-2.0852l1.6787-3.0203c.1399-.2472.3551-.3762.5811-.3654l3.4865,1.3113c.3766.1612.764.3009,1.1299.4514.2906.1075.5596.215.8178.3225l.3551.1397l1.4205-2.5044l1.6787-2.3861-.269-.258c-.452-.4299-.9793-.9459-1.5173-1.4296-1.3344-1.2898-2.701-2.5688-2.701-2.5688-.0969-.0968-.1184-.4085.0861-.6772c0,0,1.0007-1.408,2.0015-2.8376.5058-.7309,1.0331-1.408,1.4204-1.8594.4197-.4837.7103-.7954.7318-.8169.2152-.258.5703-.3117.6456-.2687c0,0,1.6142.9566,3.2283,1.9347.5273.3332,1.0653.6556,1.5603.9458l.5166.2795.2367-.258c0,0,.0861-.0859.1184-.1504.9469-1.0534,1.5603-1.7628,1.5603-1.7628l1.5819-1.795c0,0,.1291-.1074.1829-.2257l.1076-.2257-.1399-.2042c-.312-.43-.6672-.9029-1.0438-1.3973l-.2044-.2687c-1.1084-1.4941-2.1953-2.9773-2.1953-2.9881-.0753-.1075-.0323-.4084.2045-.6449l5.1114-4.7615c.1937-.1828.6242-.1613.6672-.129c0,0,1.4097,1.236,2.8301,2.4721.2798.2472.5596.4944.8286.7417.2583.2257.5058.4406.7317.6449l.3874.1827.2906-.2902c1.1299-.8706,1.8939-1.4403,1.8939-1.4511c0,0,.764-.5911,1.9585-1.5047.043-.0323.0861-.0753.1291-.1075l.2152-.215-.1399-.2795c-.1398-.2794-.2905-.5804-.4519-.8813-.1614-.3117-.3228-.6342-.4843-.9459-.8393-1.709-1.6679-3.3857-1.6679-3.3857-.0646-.1183.0323-.4407.269-.6127L47.2297,13.93c.226-.1505.5811-.1505.6672-.043l2.3459,2.8913c.4412.5482.8931,1.1286,1.2698,1.6123l.2798.4299.3443-.3654.0861-.043c1.2698-.6449,2.1091-1.0856,2.1091-1.0856s.8394-.4192,2.1092-1.0426c.0753-.0215.1399-.0537.1937-.086l.3336-.1612-.1077-.3547c-.1937-.5912-.3981-1.2683-.5918-1.9777-.538-1.7843-1.0438-3.59-1.0438-3.6008-.0431-.12893.1076-.42989.4304-.59112.0108,0,1.5281-.80613,3.1314-1.38654c1.6142-.60192,3.2391-1.23607,3.2391-1.23607.2905-.10749.6456,0,.6887.07524c0,0,.8931,1.64451,1.8078,3.25679.3444.6341.6779,1.279.9793,1.838l.2797.5051.3552-.3547c0,0,.0215,0,.043-.0107.3981-.1505.7533-.2795,1.0546-.387l3.9923-1.1715-.0431-.3655c-.0645-.60189-.1506-1.33278-.2582-2.04218l-.3874-3.7512c-.0108-.10748.1721-.36545.495-.45143l3.3359-.89212c1.7002-.32246,3.4112-.61266,3.4112-.61266.3228-.05375.6241.08598.6671.17197c0,0,.6026,1.79499,1.216,3.55773l.1829.52667c.1722.51593.3336.99961.4843,1.45104l.1184.3547.3658-.06449c1.485-.26871,2.475-.46218,2.475-.46218.0216,0,.2691-.0215.6457-.08599l.4627-.043c.3659-.03224.7856-.07523,1.2375-.11823h.5488l.0323-.39769c.0431-.62341.0861-1.3543.1076-2.0637.1507-1.85948.2583-3.74045.2583-3.74045c0-.12898.2475-.3332.5811-.36545L90.65,0.98888c.8824-.085987,1.7648-.107484,2.3566-.107484.6242,0,1.0439.021497,1.0761.021497.3229,0,.5811.182727.6026.322457L95.288,4.9443c.086.50518.1614,1.01035.2152,1.47254l.1291.93511h.5273c1.442.04299,2.4104.04299,2.3997.04299.0215,0,.9792.043,2.4317.08599h.484l.087-.32245c.15-.60191.322-1.28981.473-2.00996l.893-3.62222c.022-.10748.248-.26871.624-.22572l6.877.80614c.344.07524.57.3332.57.47293c0,0-.022,1.87022-.065,3.74045-.021.72015-.043,1.47254-.064,2.0852l-.054.44068h.441l.183-.39769-.054.42994c1.41.30095,2.357.49442,2.357.49442s.936.19348,2.464.53743l.388.13972.15-.38694c.129-.32245.28-.6664.431-1.0211.129-.29021.258-.58041.376-.87062.743-1.7305,1.507-3.42875,1.507-3.42875.075-.13973.43-.27946.678-.20422l6.628,2.12819c.323.11823.495.3547.463.49443l-.678,3.64371c-.118.5052-.215.9889-.312,1.4403l-.172.8061.172.1613c.108.0967.215.1289.28.1397c1.345.5696,2.217.9566,2.217.9566s.85.3762,2.152.9136c.064.043.118.0752.161.086l.345.1935.226-.3332c.344-.516.753-1.1394,1.13-1.7413c1.065-1.537,2.098-3.11702,2.098-3.11702.064-.09674.398-.17198.71-.03225c0,0,.398.17197,1.012.45147.602.2472,1.356.6234,2.066,1.0426c1.528.8491,3.024,1.6982,3.034,1.709.312.1719.431.4514.377.5804c0,0-.656,1.7412-1.345,3.4932-.248.6772-.527,1.3543-.764,1.8917l-.151.3547l2.518,1.4511c0,0,.85.6019,2.12,1.451l.301.2042.248-.2579c.194-.2042.409-.43.635-.6664.247-.2687.516-.5482.775-.8169l2.593-2.7194c0,0,.441-.0752.678.086c0,0,1.41,1.0319,2.916,2.0637.657.473,1.324.9674,1.776,1.3866l.818.7094c.258.2257.333.5374.269.6449l-1.916,3.2245-.14.2365c-.333.5481-.667,1.0748-.947,1.5477l-.183.4407.398.215c1.087.9351,1.808,1.5693,1.808,1.5693s.711.6449,1.797,1.5692l.226.4837.883-.6556c.376-.2902.785-.5912,1.205-.8922c1.485-1.0963,2.991-2.2034,2.991-2.2034.119-.086.474.0215.657.215l4.767,5.1055c.204.2042.204.5267.108.6449c0,0-1.216,1.408-2.497,2.9021-.473.5159-.947,1.0318-1.345,1.494l-.183.215.118.2472c.054.1075.13.1827.151.2042.872,1.1501,1.442,1.9132,1.453,1.924c0,0,.602.7739,1.463,1.8487.022.0537.065.1505.151.2365l.226.2257.28-.1505c.484-.258,1.022-.5374,1.582-.8169l.236-.1182c1.7-.8491,3.411-1.6768,3.487-1.6875.15,0,.387.0967.538.3009l3.691,5.8794c.183.301.14.6019.054.6772c0,0-1.453,1.1931-2.906,2.3431-.495.4192-.99.8062-1.431,1.1501l-.43.3332.15.3117c0,0,.043.0753.086.1613.657,1.3005,1.087,2.1496,1.087,2.1496l1.076,2.1497c.022.0645.054.129.108.2042l.183.2688.312-.0968c.559-.1827,1.248-.3977,1.948-.6126c1.807-.5375,3.626-1.0426,3.669-1.0534.151,0,.398.172.527.43c0,.0107.807,1.5262,1.388,3.1492l1.227,3.2353c.119.3117.022.6127-.086.6664c0,0-1.646.9136-3.26,1.8273l-.269.1397c-.549.2902-1.087.5804-1.55.8384l-.377.1934.269.5375c.226.6449.431,1.193.571,1.5585l.947,3.4395.366-.043c.624-.0645,1.323-.1505,2.044-.2365l3.766-.4299c.13,0,.366.2042.463.5052c0,0,.431,1.6875.893,3.3105l.603,3.4287c.075.3332-.086.6127-.194.6557c0,0-1.797.6126-3.551,1.236-.323.0968-.656.215-.968.3117-.355.1183-.689.2258-.99.3225l-.366.1075.064.3762c.28,1.5048.452,2.5044.452,2.5044s.043.2472.086.6556c.043.4085.108.9996.173,1.6553v.5696l.398.0215c.645.043,1.345.086,2.077.129c1.872.1075,3.723.2365,3.734.2365.129,0,.333.2364.365.5589l.259,3.4825c.161,1.6767.107,3.3965.107,3.418l-.086-.0323Z" transform="translate(-94.884972,-94.796013)" fill="#009ee0"></path></g><path d="M126.053,45.7668c1.249.7847,2.68,1.1931,4.143,1.1931c2.68,0,5.133-1.3543,6.564-3.6115c1.109-1.7519,1.464-3.8156,1.012-5.8363s-1.657-3.7405-3.411-4.8368c-1.249-.7954-2.691-1.2039-4.154-1.2039-2.679,0-5.122,1.3436-6.543,3.6008-1.108,1.7412-1.474,3.8157-1.022,5.8364s1.668,3.7404,3.422,4.8582h-.011Zm-1.668-10.2325c1.27-1.9992,3.444-3.203,5.822-3.203c1.302,0,2.583.3762,3.702,1.0749c1.549.9781,2.625,2.5043,3.024,4.2993.398,1.795.075,3.633-.904,5.1915-1.281,2.01-3.455,3.2138-5.844,3.2138-1.302,0-2.571-.3655-3.68-1.0641-1.56-.9889-2.636-2.5259-3.034-4.3209s-.076-3.6329.914-5.1915Z" fill="#009ee0"></path><path d="M30.69,101.519c-.5811,0-1.1622.064-1.7218.193-4.1644.914-6.8009,5.063-5.8754,9.244.7855,3.504,3.9815,6.041,7.5972,6.041.5595,0,1.1084-.065,1.6679-.183c4.1645-.946,6.7902-5.106,5.8647-9.265-.807-3.558-3.9062-6.041-7.5326-6.041v.011Zm1.4742,14.467c-.4842.108-.9792.162-1.4742.162-3.2175,0-6.0584-2.258-6.7579-5.375-.8178-3.719,1.5173-7.405,5.2191-8.222.5057-.118,1.0223-.172,1.5388-.172c3.2283,0,5.983,2.203,6.6933,5.363.8178,3.708-1.5173,7.406-5.2191,8.244Z" fill="#009ee0"></path><path d="M159.272,72.6594c-.57,0-1.151.0645-1.721.1935-2.023.4514-3.745,1.6553-4.864,3.4072-1.109,1.752-1.475,3.8265-1.012,5.8472.807,3.5577,3.917,6.0514,7.565,6.0514.57,0,1.13-.0645,1.69-.1828c2.033-.4621,3.766-1.6875,4.874-3.4502c1.098-1.7413,1.453-3.805.99-5.8042-.807-3.5684-3.906-6.0621-7.543-6.0621h.021Zm5.822,11.4041c-.99,1.5693-2.529,2.6549-4.337,3.0633-.495.1075-1,.1612-1.506.1612-3.239,0-6.005-2.2141-6.726-5.3849-.409-1.795-.086-3.633.893-5.1915.99-1.5585,2.519-2.6334,4.326-3.0311.506-.1182,1.023-.1719,1.528-.1719c3.229,0,5.983,2.2141,6.704,5.3849.409,1.7735.097,3.6007-.882,5.1593v.0107Z" fill="#009ee0"></path><path d="M154.764,123.499c-1.249-.795-2.68-1.203-4.143-1.203-2.669,0-5.123,1.343-6.565,3.6-2.259,3.612-1.173,8.406,2.422,10.684c1.248.796,2.679,1.215,4.153,1.215c2.68,0,5.133-1.344,6.554-3.601c2.27-3.601,1.194-8.394-2.411-10.695h-.01Zm1.689,10.233c-1.259,1.999-3.444,3.203-5.832,3.203-1.302,0-2.583-.376-3.691-1.075-3.196-2.031-4.154-6.298-2.153-9.501c1.281-2.01,3.465-3.203,5.844-3.203c1.302,0,2.571.376,3.68,1.074c3.207,2.043,4.175,6.31,2.152,9.513v-.011Z" fill="#009ee0"></path><path d="M109.374,151.295c-.57,0-1.13.064-1.689.183-4.154.946-6.78,5.105-5.854,9.265.774,3.493,3.949,6.04,7.532,6.04.581,0,1.152-.064,1.722-.193c2.023-.441,3.745-1.655,4.853-3.407c1.109-1.742,1.474-3.827,1.022-5.847-.796-3.504-3.992-6.052-7.586-6.052v.011Zm5.843,11.436c-.99,1.559-2.518,2.634-4.315,3.031-.506.119-1.022.172-1.528.172-3.196,0-6.005-2.257-6.693-5.363-.829-3.708,1.506-7.406,5.197-8.244.495-.108,1.001-.161,1.507-.161c3.196,0,6.037,2.267,6.747,5.374.398,1.795.075,3.643-.904,5.191h-.011Z" fill="#009ee0"></path><path d="M63.8448,143.911c-1.2375-.796-2.6795-1.215-4.1429-1.215-2.6688,0-5.1222,1.344-6.5642,3.601-2.2706,3.601-1.1945,8.394,2.4212,10.695c1.2375.773,2.6687,1.182,4.1214,1.182c2.6795,0,5.133-1.344,6.5642-3.601c1.1084-1.741,1.4742-3.816,1.0223-5.825-.452-2.021-1.668-3.741-3.4112-4.837h-.0108Zm1.6679,10.211c-1.2697,1.999-3.4434,3.203-5.8324,3.203-1.2913,0-2.5611-.366-3.6587-1.054-3.2067-2.042-4.1752-6.309-2.1522-9.512c1.2806-2.01,3.4651-3.203,5.8325-3.203c1.302,0,2.5718.376,3.6802,1.075c1.5603.978,2.6364,2.504,3.0346,4.299.3981,1.795.0753,3.633-.904,5.181v.011Z" fill="#009ee0"></path><path d="M46.8531,57.9233c-.4519-2.0207-1.6679-3.7404-3.4219-4.8475-1.2375-.7847-2.6687-1.1931-4.1322-1.1931-2.6795,0-5.133,1.3543-6.5642,3.6115-1.0976,1.7412-1.4635,3.8049-1.0008,5.8256.452,2.0207,1.668,3.7512,3.422,4.8476c1.2375.7846,2.6687,1.193,4.1214,1.193c2.6795,0,5.133-1.3435,6.5642-3.6114c1.1084-1.7413,1.4742-3.8157,1.0223-5.8257h-.0108Zm-1.754,5.3635c-1.2698,2.0099-3.4543,3.203-5.8324,3.203-1.2913,0-2.5611-.3654-3.6695-1.0641-1.5496-.9781-2.6364-2.5151-3.0453-4.3101s-.0861-3.633.8931-5.17c1.2806-2.01,3.4543-3.2138,5.8432-3.2138c1.3021,0,2.5719.3655,3.6802,1.0641c1.5604.9781,2.6365,2.5151,3.0346,4.3101.3982,1.795.0753,3.633-.9147,5.1808h.0108Z" fill="#009ee0"></path></g><clipPath id="enWKIksVPNo83"><rect width="394" height="217" rx="0" ry="0" fill="#fff"></rect></clipPath></g></svg>